<?xml version="1.0" standalone="no"?>
<!DOCTYPE svg PUBLIC "-//W3C//DTD SVG 20010904//EN"
 "http://www.w3.org/TR/2001/REC-SVG-20010904/DTD/svg10.dtd">
<svg version="1.0" xmlns="http://www.w3.org/2000/svg"
 width="626.000000pt" height="417.000000pt" viewBox="0 0 626.000000 417.000000"
 preserveAspectRatio="xMidYMid meet">

<g transform="translate(0.000000,417.000000) scale(0.100000,-0.100000)"
fill="#000000" stroke="none">
<path d="M2050 4162 c0 -4 5 -13 11 -19 6 -6 14 -26 18 -45 5 -26 13 -34 36
-39 17 -4 23 -7 13 -8 -18 -1 -14 -35 8 -61 16 -19 37 -73 25 -66 -5 4 -12 0
-15 -6 -5 -10 -7 -10 -12 0 -3 6 -10 12 -15 12 -5 0 -4 -8 2 -19 8 -11 20 -17
33 -14 16 4 18 2 7 -5 -7 -5 -10 -15 -6 -22 6 -9 3 -9 -15 0 -17 9 -25 9 -34
0 -8 -8 -7 -10 7 -5 21 9 19 68 17 -525 l-1 -475 -52 -45 c-29 -24 -97 -89
-152 -144 -55 -55 -79 -81 -54 -58 49 46 57 45 78 -9 6 -16 10 -18 10 -7 1 9
38 48 84 87 75 65 83 70 96 53 12 -15 13 -13 8 18 -5 34 -1 39 111 147 l117
113 7 -58 c4 -31 7 -254 6 -495 -1 -435 -1 -437 -22 -442 -112 -23 -121 -23
-153 -8 -32 15 -44 33 -23 33 6 0 10 -5 10 -11 0 -6 8 -8 18 -6 9 3 30 8 45
11 26 6 28 9 25 54 -4 60 -21 57 -29 -5 l-6 -48 -2 50 c-1 45 -3 48 -15 32 -8
-10 -16 -13 -17 -8 -2 6 -14 8 -26 5 -16 -5 -23 -15 -26 -43 -3 -32 -4 -30 -5
12 -2 34 -6 47 -17 47 -8 0 -15 -5 -15 -11 0 -5 6 -7 13 -3 7 4 7 2 -2 -7 -11
-11 -14 -11 -18 -1 -4 10 -9 8 -19 -5 -7 -10 -14 -13 -14 -6 0 9 -8 9 -32 1
-18 -6 -27 -13 -20 -16 16 -5 15 -27 -2 -41 -8 -6 -16 -27 -18 -46 -3 -27 0
-35 12 -35 9 0 21 5 27 11 8 8 17 7 34 -2 l24 -14 -25 -3 c-14 -2 -29 -10 -33
-18 -5 -8 -24 -14 -47 -14 l-40 0 0 65 c0 55 3 66 21 75 11 7 18 14 16 17 -3
2 -15 0 -26 -7 -19 -9 -21 -8 -21 14 0 14 10 34 21 45 l21 20 -21 -6 c-16 -4
-21 -1 -21 14 0 28 25 57 42 51 9 -4 15 0 15 8 0 8 -6 12 -14 9 -7 -3 -20 -8
-28 -11 -10 -4 -15 0 -15 13 0 11 3 23 7 27 12 12 12 37 0 33 -9 -3 -12 -54
-12 -180 0 -96 -3 -178 -7 -182 -4 -4 -15 -4 -25 0 -16 7 -15 9 7 15 31 10 27
11 -30 15 -25 1 -55 3 -67 4 l-23 1 0 303 c0 359 -4 405 -34 409 -19 3 -21 10
-24 78 -4 132 -7 138 -61 145 -25 3 -56 8 -68 11 -13 2 -23 3 -24 2 0 -2 -3
-43 -5 -93 -3 -49 -9 -92 -13 -95 -10 -6 -20 -152 -30 -430 -4 -113 -8 -200
-10 -195 -2 6 -7 -1 -11 -15 -5 -15 -9 40 -10 140 l-3 165 -9 -145 c-12 -219
-23 -244 -32 -78 -4 75 -5 146 -1 158 5 15 4 20 -4 16 -7 -5 -11 -66 -11 -187
l0 -179 -27 -1 c-16 0 -44 -2 -63 -4 -19 -2 -75 -6 -125 -9 -77 -6 -243 -39
-297 -61 -13 -5 -17 0 -20 22 -2 16 -8 27 -15 25 -7 -1 -13 2 -13 8 0 5 5 10
10 10 6 0 10 9 10 20 0 11 -6 20 -14 20 -20 0 -25 37 -25 157 1 104 -6 137
-22 112 -5 -8 -9 -71 -9 -140 0 -106 -3 -128 -16 -133 -31 -12 -44 -6 -45 22
-1 20 -3 22 -6 7 -2 -11 -11 -35 -19 -53 -12 -25 -13 -40 -5 -63 11 -32 5 -36
-23 -16 -15 11 -17 26 -14 110 2 71 0 98 -9 102 -10 3 -13 48 -13 174 0 192 3
185 -83 181 -84 -5 -81 -8 -74 68 7 65 6 69 -17 80 -24 11 -36 59 -36 141 0
45 6 53 55 79 22 12 36 21 30 21 -5 0 -21 -6 -35 -14 -14 -8 -28 -14 -32 -15
-5 0 -8 69 -8 154 0 114 3 156 13 159 10 4 10 6 0 6 -9 1 -13 18 -13 50 0 44
-12 72 -26 58 -3 -2 -5 -144 -5 -316 0 -171 -2 -311 -5 -311 -3 0 -21 12 -40
26 -25 19 -33 32 -29 45 4 11 2 19 -3 19 -6 0 -12 -5 -14 -10 -2 -6 -28 10
-58 35 -30 25 -58 45 -62 45 -4 0 -32 11 -62 25 -68 31 -106 33 -113 5 -7 -25
-23 -25 -55 -1 l-25 20 -2 -57 c-2 -51 1 -58 21 -67 17 -7 23 -18 23 -43 1
-40 -4 -48 -30 -55 -19 -4 -18 -5 2 -6 28 -1 37 -16 23 -41 -6 -11 -7 -20 -2
-20 5 0 9 -14 10 -31 1 -28 -2 -30 -24 -25 -17 5 -24 2 -24 -9 0 -9 9 -15 26
-15 22 0 25 -4 22 -27 -2 -20 -9 -29 -25 -31 -20 -3 -23 -9 -23 -48 0 -41 2
-44 26 -44 14 0 23 -4 19 -10 -3 -5 -15 -10 -26 -10 -18 0 -19 -9 -19 -270 l0
-269 48 4 c26 3 127 7 225 9 l177 6 0 -30 c0 -23 -5 -31 -22 -34 -13 -2 -114
-19 -225 -37 l-203 -33 0 -129 0 -129 36 6 c19 4 205 9 412 11 207 2 432 5
499 5 101 1 121 4 116 16 -4 12 -83 14 -507 15 -426 0 -495 2 -461 13 22 8
119 43 215 78 96 36 185 69 198 72 12 4 22 12 22 17 0 5 104 10 253 11 l252 1
-185 8 c-102 5 -201 10 -220 11 l-35 4 28 12 c16 7 67 13 115 13 48 1 132 4
187 8 l100 7 -110 7 c-184 13 -196 20 -95 52 30 10 58 22 62 28 3 6 52 14 108
18 111 9 142 18 64 20 l-49 1 50 10 c35 6 51 6 53 -2 3 -7 8 -6 16 4 6 8 34
16 61 19 40 4 54 1 72 -15 l21 -20 18 21 c10 12 22 21 27 21 5 0 4 -6 -3 -14
-9 -12 -8 -15 9 -13 12 1 21 5 21 10 0 4 6 5 13 0 15 -9 47 -5 64 9 9 7 11 4
10 -11 -1 -19 -8 -21 -74 -21 -39 0 -75 -4 -78 -10 -4 -6 3 -9 17 -7 15 1 23
-4 26 -17 3 -15 -1 -18 -22 -14 -20 4 -26 1 -26 -12 0 -20 53 -30 160 -30 l68
0 -8 35 c-8 34 2 56 15 35 3 -5 30 -10 60 -10 33 0 56 -5 59 -12 3 -7 3 -3 1
8 -7 29 44 84 79 84 14 0 26 5 26 10 0 12 220 12 295 0 38 -5 14 -8 -95 -9
l-145 -1 -2 -30 c-1 -16 -3 -47 -4 -69 -1 -32 -5 -38 -20 -34 -17 5 -26 42
-19 78 1 7 -2 7 -9 0 -6 -6 -17 -35 -25 -65 -8 -30 -15 -48 -15 -38 -1 16 -16
19 -37 5 -12 -7 -27 6 -37 33 -3 8 -6 1 -6 -16 -1 -30 1 -31 78 -52 66 -19
105 -22 249 -22 184 0 182 -1 182 57 0 24 2 25 39 20 32 -4 38 -2 34 9 -5 12
5 14 61 8 47 -5 66 -3 66 5 0 6 8 11 18 11 14 0 15 -2 2 -10 -8 -5 -12 -11
-10 -13 3 -3 54 -9 115 -14 l110 -10 35 28 c19 16 77 43 129 60 l95 32 -25 21
c-50 43 -17 76 77 76 l34 0 0 105 c0 58 -3 105 -7 105 -5 0 -41 -12 -81 -26
-40 -15 -74 -25 -77 -23 -2 2 -5 42 -6 88 l-2 83 89 44 c49 24 92 43 97 44 4
0 7 -9 7 -19 0 -11 6 -22 13 -24 10 -4 10 -6 0 -6 -8 -1 -13 -15 -13 -36 0
-29 4 -35 18 -33 13 2 18 -5 20 -34 3 -33 0 -38 -22 -44 -24 -6 -26 -11 -26
-57 0 -38 5 -56 22 -74 l21 -23 -21 0 c-21 0 -22 -5 -23 -77 -1 -54 -4 -67 -8
-43 l-6 35 -53 -8 c-63 -10 -67 -32 -12 -59 25 -13 38 -28 46 -54 l10 -36 31
35 c37 43 66 52 223 72 216 28 292 35 400 35 58 0 123 5 144 10 45 10 106 64
90 80 -16 16 -246 97 -313 111 -63 12 -266 8 -306 -7 -18 -6 -18 -5 -5 9 26
27 159 59 265 64 146 8 229 -15 604 -162 52 -20 119 -41 150 -46 30 -4 175 -6
323 -2 227 5 267 8 255 20 -21 22 -172 84 -175 72 -3 -6 -8 -6 -15 0 -15 12
-133 44 -273 75 -121 27 -212 33 -317 21 -42 -5 -76 -4 -90 2 -12 6 -33 15
-47 21 -21 9 -16 11 38 11 l62 1 0 63 0 63 -102 -17 c-57 -10 -117 -21 -134
-24 -31 -5 -32 -6 -22 -45 10 -38 11 -39 62 -43 28 -2 19 -3 -20 -2 -40 2 -76
0 -80 -5 -5 -4 -20 -4 -33 1 -18 7 -22 14 -17 33 7 30 4 31 -204 47 -85 6
-159 16 -165 22 -10 10 107 5 242 -9 54 -6 62 -5 66 12 4 16 5 15 6 -3 1 -17
7 -23 26 -23 31 0 34 13 38 165 l2 120 80 28 c44 16 119 39 167 52 l86 23 7
-25 c3 -14 2 -29 -2 -34 -4 -4 -57 -21 -118 -39 -136 -39 -199 -66 -189 -81 5
-8 8 -8 13 0 10 15 227 83 254 79 20 -3 23 -11 28 -83 l5 -80 2 93 c2 91 3 93
24 90 13 -2 33 -19 48 -42 24 -36 25 -47 26 -183 1 -79 4 -146 6 -148 2 -2 53
-11 113 -20 61 -9 173 -31 250 -49 77 -19 141 -33 142 -32 0 0 3 126 5 278 l3
277 43 11 c24 6 47 8 53 5 5 -4 9 -60 9 -125 0 -68 4 -121 10 -125 6 -4 10
-66 10 -153 0 -219 -1 -216 81 -258 54 -27 80 -34 125 -34 75 0 183 -18 211
-36 24 -15 44 -72 36 -103 -9 -35 16 -89 52 -111 52 -32 82 -74 89 -124 7 -44
9 -46 41 -46 l34 0 3 115 c2 63 0 115 -4 115 -5 0 -8 17 -8 39 0 31 -4 40 -21
44 -19 5 -20 10 -14 59 9 74 32 102 83 105 35 2 44 -1 58 -22 22 -33 30 -25
11 12 -12 22 -14 73 -13 258 2 255 -1 245 66 201 54 -36 140 -77 140 -68 0 4
-35 41 -77 82 -43 41 -61 57 -40 34 40 -43 41 -41 -18 -35 -5 1 -18 8 -28 15
-15 12 -18 38 -23 199 -4 103 -3 198 0 212 4 15 17 30 32 35 15 6 22 15 18 22
-4 6 -3 8 3 5 6 -4 16 -1 22 7 6 7 23 13 38 14 16 0 55 10 87 21 33 12 61 19
64 17 2 -3 7 -336 10 -741 l5 -737 51 4 c28 3 59 8 69 12 17 8 17 6 2 -32 -20
-48 -17 -86 7 -90 12 -2 16 1 13 10 -3 8 8 33 25 57 27 36 35 42 63 39 32 -3
32 -3 37 -68 l5 -65 43 -3 c29 -2 42 0 37 7 -3 6 -13 11 -21 11 -10 0 -14 14
-14 53 l0 54 100 -5 100 -5 0 387 c0 364 -1 387 -17 384 -17 -3 -18 -30 -23
-345 -3 -188 -8 -345 -12 -349 -5 -4 -8 149 -8 340 l0 348 -67 -6 c-38 -4
-123 -14 -191 -23 -111 -13 -145 -13 -130 2 5 5 407 65 436 65 9 0 12 50 12
215 0 118 -1 215 -2 215 -2 0 -116 -22 -254 -48 l-252 -48 -5 30 c-8 55 -2
335 8 344 6 5 93 32 195 61 307 86 310 88 310 122 0 26 -2 28 -25 19 -36 -14
-468 -142 -604 -180 -106 -29 -141 -32 -141 -13 0 16 131 58 635 203 l130 38
1 148 c0 82 -1 124 -3 93 l-4 -56 -57 -18 c-31 -9 -62 -19 -67 -21 -7 -3 -8
21 -5 67 6 74 1 89 -20 64 -10 -12 -10 -15 0 -15 9 0 11 -12 6 -42 -10 -69
-12 -77 -19 -84 -4 -4 -7 78 -7 183 0 104 -3 272 -7 371 l-6 182 -159 0 -158
0 0 -318 0 -318 -37 -16 c-21 -9 -109 -44 -196 -78 -86 -34 -155 -65 -152 -70
7 -11 -2 -16 -42 -25 l-33 -7 0 121 c0 67 -2 121 -5 121 -2 0 -44 -18 -92 -40
-49 -22 -79 -33 -68 -24 11 9 52 31 91 49 l72 33 -2 146 c0 90 -5 146 -11 146
-5 0 -43 -18 -84 -41 -40 -22 -75 -38 -77 -36 -2 2 34 23 80 47 l83 44 6 115
c3 64 4 117 3 118 -2 2 -53 -25 -114 -59 l-111 -63 -1 -390 0 -390 -46 -19
c-26 -11 -42 -22 -37 -27 5 -5 27 0 52 12 24 11 44 19 46 17 2 -2 1 -35 -2
-73 l-5 -71 -60 -21 -59 -22 1 77 c1 42 1 132 1 199 l-1 121 -37 -18 c-21 -9
-49 -20 -63 -24 -14 -3 3 7 38 24 l62 29 0 141 0 140 -51 -26 c-28 -14 -53
-24 -54 -22 -2 2 21 16 51 32 l54 28 0 110 c0 60 -4 108 -8 106 -4 -1 -48 -27
-98 -57 l-89 -53 0 -360 0 -359 -103 -35 c-57 -20 -106 -33 -109 -30 -3 3 -6
152 -5 331 1 179 -3 325 -8 325 -4 0 -32 -16 -61 -36 -30 -20 -65 -42 -78 -49
l-24 -12 2 -331 2 -331 -43 -20 c-24 -12 -35 -19 -25 -16 64 18 67 18 67 -3 0
-12 -8 -26 -17 -31 -10 -6 -12 -11 -5 -11 14 0 17 -60 2 -60 -5 0 -11 1 -13 3
-2 1 -11 -6 -21 -15 -10 -10 -21 -18 -26 -18 -13 0 -23 278 -18 537 2 133 3
243 2 243 -2 0 -42 -25 -90 -55 -49 -30 -90 -55 -93 -55 -4 0 -6 -136 -6 -302
l0 -302 -75 -28 c-41 -15 -76 -28 -77 -28 -2 0 -3 88 -3 195 l0 196 -32 -17
c-21 -10 -28 -11 -20 -3 6 7 12 33 12 59 0 25 5 52 10 60 7 11 10 0 10 -37 0
-29 5 -53 10 -53 6 0 10 33 10 80 0 44 -3 80 -6 80 -4 0 -28 -12 -55 -27 l-49
-26 6 -274 c6 -226 5 -273 -6 -273 -11 0 -11 -3 -2 -12 7 -7 12 -31 12 -55 l0
-42 -102 -32 c-57 -18 -109 -34 -115 -36 -9 -4 -13 9 -13 46 0 34 4 51 13 51
8 0 9 3 1 8 -9 6 -22 790 -24 1440 l0 52 -515 0 -515 0 0 -67 c-1 -38 -2 -236
-3 -442 -2 -289 -5 -375 -14 -378 -7 -3 -13 1 -13 9 0 7 -13 40 -30 73 l-29
60 -1 373 0 372 -210 0 c-115 0 -210 -4 -210 -8z m838 -760 c2 -443 0 -632 -7
-622 -6 8 -11 26 -11 39 l0 25 -27 -26 c-34 -31 -70 -51 -76 -41 -3 5 -7 260
-8 568 l-3 560 63 68 c35 37 64 67 65 67 0 0 2 -287 4 -638z m297 -489 c6
-401 5 -533 -3 -533 -9 0 -12 54 -12 193 0 107 -2 439 -4 738 -3 361 -2 475 4
339 4 -113 11 -445 15 -737z m1325 573 c-19 -17 -110 -70 -110 -63 0 6 111 77
119 77 3 0 -1 -6 -9 -14z m1188 -108 l-3 -91 -140 -48 c-77 -26 -153 -49 -170
-51 -27 -3 -30 0 -36 35 -9 58 -23 59 -15 1 5 -42 3 -53 -10 -58 -28 -11 -30
-7 -29 69 0 63 3 76 17 80 10 3 27 8 38 11 18 5 20 1 20 -55 0 -33 5 -63 11
-67 8 -5 10 15 7 69 l-3 76 65 25 c36 14 103 41 150 60 47 19 89 35 93 36 4 0
6 -41 5 -92z m-1466 -25 c27 8 15 -3 -54 -47 -67 -42 -79 -35 -15 8 41 28 42
30 41 85 l-1 56 4 -54 c4 -48 6 -53 25 -48z m-1872 -7 c-6 -6 -16 -11 -22 -11
-6 0 -12 -12 -12 -26 -1 -18 3 -25 11 -22 29 11 11 -17 -24 -38 -21 -13 -42
-29 -46 -36 -4 -7 -16 -13 -25 -13 -12 0 -7 9 17 31 26 23 38 47 53 101 10 39
26 80 36 93 17 23 17 23 20 -22 2 -25 -2 -51 -8 -57z m3392 44 c-3 -47 -8 -63
-23 -70 -13 -7 -19 -7 -19 0 0 5 5 10 10 10 6 0 10 17 10 38 0 20 3 47 6 60
11 41 19 23 16 -38z m-1254 -152 c12 -3 4 -11 -26 -27 -24 -12 -46 -20 -49
-18 -3 3 5 10 16 17 19 9 21 20 21 95 0 118 14 141 18 28 2 -77 5 -92 20 -95z
m-278 -46 l0 -98 -35 -17 c-20 -9 -37 -17 -38 -17 -1 0 -1 44 1 98 3 94 4 98
30 114 15 9 30 17 35 17 4 1 7 -43 7 -97z m-1860 -44 l0 -93 -53 -57 c-29 -32
-55 -58 -58 -58 -2 0 -3 44 -1 97 l3 98 52 53 c28 28 53 52 54 52 2 0 3 -42 3
-92z m587 50 c-3 -8 -6 -5 -6 6 -1 11 2 17 5 13 3 -3 4 -12 1 -19z m-663 -13
c-9 -14 -19 -23 -22 -20 -5 4 26 45 35 45 2 0 -4 -11 -13 -25z m2202 -172 c-3
-7 -10 -13 -16 -13 -15 0 -13 143 3 159 10 10 13 -2 15 -60 2 -40 1 -78 -2
-86z m-566 44 c0 -71 -3 -84 -20 -95 -19 -12 -20 -10 -20 77 0 77 2 90 18 94
9 3 18 5 20 6 1 0 2 -36 2 -82z m1495 50 c-3 -7 -166 -65 -363 -130 -196 -65
-366 -123 -377 -128 -42 -19 -687 -227 -678 -218 5 5 308 110 674 233 365 123
680 230 699 239 44 19 51 20 45 4z m-658 -74 c-3 -31 -11 -59 -17 -63 -7 -4
-11 -10 -11 -14 1 -3 -2 -6 -6 -7 -5 0 -14 -5 -20 -11 -10 -8 -13 3 -11 53 l1
64 7 -50 c5 -38 8 -43 10 -20 3 40 3 36 -4 67 -5 20 -2 28 11 31 44 12 46 10
40 -50z m-537 -56 c0 -80 -1 -84 -25 -95 -14 -7 -30 -12 -35 -12 -6 0 -10 36
-10 80 0 76 1 80 28 94 15 8 30 15 35 16 4 0 7 -38 7 -83z m455 13 l0 -63 -68
-28 c-80 -33 -83 -31 -70 63 l8 62 55 17 c30 9 60 16 65 15 6 -2 10 -31 10
-66z m-1738 18 c-3 -8 -6 -5 -6 6 -1 11 2 17 5 13 3 -3 4 -12 1 -19z m983
-143 c0 -78 -2 -85 -20 -85 -18 0 -20 7 -20 75 0 60 3 76 18 84 9 6 18 11 20
11 1 0 2 -38 2 -85z m-1687 50 c-3 -9 -8 -14 -10 -11 -3 3 -2 9 2 15 9 16 15
13 8 -4z m1977 -100 c0 -49 -3 -57 -22 -64 -21 -8 -23 -5 -28 28 -9 65 -1 83
43 90 4 0 7 -24 7 -54z m-1063 -332 c-1 -65 -3 -12 -3 117 0 129 2 182 3 118
2 -65 2 -171 0 -235z m943 293 c0 -47 -3 -55 -22 -61 -13 -4 -26 -7 -30 -6 -5
1 -8 -3 -8 -8 0 -10 -54 -31 -81 -31 -16 0 -19 8 -19 55 l0 54 48 14 c26 8 52
11 57 6 7 -5 16 0 23 12 21 33 32 21 32 -35z m-1129 -16 c10 -34 10 -43 -4
-58 -10 -10 -17 -24 -17 -30 0 -7 -4 -12 -10 -12 -6 0 -10 30 -10 70 0 55 3
70 15 70 8 0 19 -17 26 -40z m957 -95 c-2 -1 -14 -5 -28 -9 -14 -3 -19 -3 -12
0 7 3 12 25 12 54 0 68 24 74 28 7 2 -27 2 -50 0 -52z m-2288 55 c0 -5 -4 -10
-10 -10 -5 0 -10 5 -10 10 0 6 5 10 10 10 6 0 10 -4 10 -10z m-1505 -59 c4
-33 1 -41 -13 -42 -16 -1 -16 -2 1 -6 23 -6 23 -53 0 -53 -15 0 -15 -1 1 -13
23 -17 17 -52 -9 -52 -14 0 -20 6 -19 23 1 12 -3 22 -7 22 -5 0 -9 7 -9 16 0
8 3 13 8 11 4 -3 7 8 8 24 1 16 -2 29 -5 29 -3 0 -7 18 -7 39 -2 34 1 40 20
43 28 5 27 6 31 -41z m94 32 c3 -2 -4 -10 -15 -18 -17 -13 -17 -14 -1 -15 9 0
17 -6 17 -14 0 -8 3 -23 7 -33 6 -17 6 -17 -10 -1 -9 9 -17 21 -17 27 0 6 -5
11 -11 11 -6 0 -9 -14 -7 -31 2 -17 -1 -32 -7 -33 -5 0 -11 19 -12 44 -1 25
-4 53 -6 62 -4 14 0 16 27 11 17 -3 33 -8 35 -10z m2833 -121 l-63 -57 -2 -65
c-2 -64 -2 -64 -32 -65 l-30 0 -3 98 c-1 53 1 97 6 97 5 0 17 -9 27 -20 18
-19 18 -19 45 3 15 13 41 29 59 36 17 8 31 17 31 22 0 5 6 9 13 9 6 0 -16 -26
-51 -58z m-2837 18 c3 -5 1 -10 -4 -10 -6 0 -11 5 -11 10 0 6 2 10 4 10 3 0 8
-4 11 -10z m2202 -22 c-3 -8 -6 -5 -6 6 -1 11 2 17 5 13 3 -3 4 -12 1 -19z
m-2230 -32 c-4 -9 -11 -16 -17 -16 -11 0 -14 33 -3 44 11 10 26 -11 20 -28z
m35 -20 c3 -24 0 -32 -9 -29 -14 6 -18 63 -4 63 5 0 11 -15 13 -34z m-111 -46
c26 -15 26 -60 -1 -60 -15 0 -20 7 -20 29 0 16 -6 32 -12 34 -10 4 -10 6 0 6
7 1 22 -4 33 -9z m79 -32 c0 -10 -7 -18 -15 -18 -16 0 -19 17 -9 45 5 13 8 14
15 3 5 -7 9 -21 9 -30z m17 0 c-3 -8 -6 -5 -6 6 -1 11 2 17 5 13 3 -3 4 -12 1
-19z m405 -38 c-5 -35 -22 -30 -22 6 0 13 6 24 13 24 9 0 12 -10 9 -30z m2775
-82 c-2 -18 -4 -4 -4 32 0 36 2 50 4 33 2 -18 2 -48 0 -65z m-3257 57 c0 -18
-5 -25 -20 -25 -15 0 -20 7 -20 25 0 18 5 25 20 25 15 0 20 -7 20 -25z m3140
-25 c0 -27 -4 -50 -10 -50 -5 0 -10 23 -10 50 0 28 5 50 10 50 6 0 10 -22 10
-50z m-3225 20 c0 -7 -6 -15 -12 -17 -8 -3 -13 4 -13 17 0 13 5 20 13 18 6 -3
12 -11 12 -18z m599 -32 c7 -5 4 -8 -6 -8 -12 0 -18 7 -17 23 0 15 2 17 6 7 3
-8 11 -18 17 -22z m-454 12 c0 -5 -4 -10 -10 -10 -5 0 -10 5 -10 10 0 6 5 10
10 10 6 0 10 -4 10 -10z m30 1 c0 -6 -4 -13 -10 -16 -5 -3 -10 1 -10 9 0 9 5
16 10 16 6 0 10 -4 10 -9z m3090 -38 c0 -7 -4 -13 -10 -13 -5 0 -10 12 -10 28
0 21 2 24 10 12 5 -8 10 -21 10 -27z m37 15 c-3 -8 -6 -5 -6 6 -1 11 2 17 5
13 3 -3 4 -12 1 -19z m140 -30 c-2 -13 -4 -5 -4 17 -1 22 1 32 4 23 2 -10 2
-28 0 -40z m-3347 12 c0 -5 -11 -10 -25 -10 -14 0 -25 5 -25 10 0 6 11 10 25
10 14 0 25 -4 25 -10z m-45 -100 c3 -5 1 -10 -4 -10 -6 0 -11 5 -11 10 0 6 2
10 4 10 3 0 8 -4 11 -10z m3957 -96 c46 -14 117 -39 158 -54 41 -15 84 -31 94
-34 10 -4 17 -9 14 -11 -2 -3 -46 9 -97 25 -50 17 -98 30 -106 30 -27 0 -175
51 -175 60 0 15 22 12 112 -16z m-1912 -33 c0 -4 -9 -7 -20 -8 -22 -2 -23 -1
-14 21 5 13 9 14 20 5 8 -6 14 -14 14 -18z m-2017 12 c-7 -2 -19 -2 -25 0 -7
3 -2 5 12 5 14 0 19 -2 13 -5z m5240 -23 c-3 -11 -9 -20 -14 -20 -10 0 -12 24
-2 33 13 13 21 7 16 -13z m643 -37 c12 -16 24 -50 27 -78 4 -27 9 -60 13 -72
6 -20 2 -22 -55 -29 -60 -6 -60 -7 -38 -25 19 -16 20 -20 7 -29 -8 -5 -23 -10
-32 -10 -9 0 -23 -3 -32 -6 -27 -10 -32 27 -7 48 13 10 19 18 13 18 -6 0 -17
7 -26 15 -13 13 -13 20 -1 54 7 22 21 51 30 64 9 14 14 30 13 36 -3 11 36 38
58 40 5 1 19 -11 30 -26z m-3236 -34 c0 -21 -4 -39 -10 -39 -5 0 -10 21 -10
46 0 27 4 43 10 39 6 -3 10 -24 10 -46z m-1315 -89 c0 -12 -19 -15 -103 -17
-144 -2 -302 -20 -375 -43 -73 -23 -81 -24 -46 -5 15 8 76 26 135 40 184 44
389 57 389 25z m935 -20 c0 -15 -7 -20 -25 -20 -18 0 -25 5 -25 20 0 15 7 20
25 20 18 0 25 -5 25 -20z m-60 -10 c0 -5 -7 -10 -15 -10 -8 0 -15 5 -15 10 0
6 7 10 15 10 8 0 15 -4 15 -10z m2997 -77 c-3 -10 -5 -2 -5 17 0 19 2 27 5 18
2 -10 2 -26 0 -35z m-3817 28 c0 -12 -20 -25 -27 -18 -7 7 6 27 18 27 5 0 9
-4 9 -9z m618 -4 c8 -10 2 -12 -29 -9 -21 2 -39 8 -39 13 0 14 56 11 68 -4z
m3912 3 c0 -5 -9 -10 -20 -10 -11 0 -20 5 -20 10 0 6 9 10 20 10 11 0 20 -4
20 -10z m-4570 -36 c0 -8 -4 -12 -10 -9 -5 3 -10 10 -10 16 0 5 5 9 10 9 6 0
10 -7 10 -16z m-620 -4 c0 -5 -3 -10 -6 -10 -9 0 -286 -50 -311 -57 -20 -4
-23 -1 -23 25 l0 30 103 9 c143 14 237 15 237 3z m1050 -10 c14 -8 20 -15 13
-17 -7 -3 -22 2 -34 10 -12 9 -28 13 -35 10 -8 -3 -14 -1 -14 5 0 13 38 9 70
-8z m110 -1 c0 -14 -26 -11 -39 5 -9 11 -6 12 14 8 14 -2 25 -8 25 -13z m170
12 c0 -5 3 -16 6 -24 4 -12 0 -14 -15 -10 -24 6 -29 43 -6 43 8 0 15 -4 15 -9z
m-733 -17 c2 -7 -6 -10 -22 -6 -35 6 -44 24 -9 20 15 -2 29 -8 31 -14z m685
-8 c5 -7 -2 -13 -15 -17 -20 -5 -34 8 -36 34 -1 11 42 -3 51 -17z m-169 -83
c3 -5 -18 -7 -46 -5 -92 5 -104 9 -30 11 39 0 74 -2 76 -6z m102 -3 c-3 -5
-17 -10 -31 -10 -13 0 -24 5 -24 10 0 6 14 10 31 10 17 0 28 -4 24 -10z"/>
<path d="M3678 4163 c7 -3 16 -2 19 1 4 3 -2 6 -13 5 -11 0 -14 -3 -6 -6z"/>
<path d="M3691 4126 c-24 -24 -41 -51 -39 -59 2 -10 22 3 68 44 58 53 62 59
40 59 -17 0 -40 -15 -69 -44z"/>
<path d="M4088 3963 c-2 -115 -3 -209 -2 -210 0 -2 42 28 92 65 51 37 90 72
88 78 -2 6 5 11 17 10 12 -1 24 1 27 4 21 21 106 84 151 110 63 37 79 55 79
89 l0 26 -18 -30 c-11 -16 -26 -36 -35 -44 -16 -12 -17 -8 -17 48 l0 61 -45 0
-44 0 -3 -92 -3 -92 -43 -33 c-24 -18 -48 -33 -54 -33 -6 0 -9 33 -8 83 1 45
1 87 0 92 -1 6 -1 25 0 43 1 28 -1 32 -24 32 -25 0 -26 -3 -26 -54 0 -50 -3
-56 -35 -80 l-35 -27 0 80 0 81 -30 0 -29 0 -3 -207z m131 -20 c0 -76 -1 -79
-35 -106 l-34 -29 0 78 c0 71 2 80 27 106 15 15 30 28 35 28 4 0 8 -35 7 -77z"/>
<path d="M4713 4149 l-33 -21 2 -121 2 -122 3 98 4 98 54 34 c29 19 56 39 60
45 11 19 -59 10 -92 -11z"/>
<path d="M3875 4019 l-50 -28 4 -194 3 -194 -38 -31 c-21 -18 -42 -32 -46 -32
-5 0 -8 36 -8 79 0 61 3 80 15 85 21 8 19 36 -3 36 -16 0 -18 7 -15 48 2 26 8
56 13 67 4 11 10 32 13 47 5 31 -6 28 -55 -14 -26 -23 -26 -24 -31 -193 -4
-97 -2 -159 3 -145 7 22 8 20 9 -17 1 -25 -4 -43 -11 -46 -7 -2 -10 -7 -7 -11
3 -3 42 20 85 52 43 32 100 71 127 86 26 15 47 34 47 42 0 16 -16 19 -25 4
-16 -26 -25 -3 -25 65 0 68 2 76 25 91 27 18 35 50 10 40 -8 -3 -22 -9 -30
-12 -26 -10 -17 73 12 121 11 17 14 18 23 5 7 -11 10 -3 10 33 0 26 -1 47 -2
46 -2 -1 -25 -14 -53 -30z"/>
<path d="M4530 4011 c-14 -10 -130 -89 -257 -175 -170 -115 -233 -163 -233
-177 0 -17 12 -12 78 32 42 28 85 61 95 73 10 11 16 14 12 6 -4 -8 2 -4 13 9
11 14 24 21 31 17 7 -5 10 -2 9 6 -2 7 5 12 15 12 9 -1 17 5 17 13 0 10 6 13
17 9 10 -4 14 -4 11 0 -7 6 182 134 199 134 11 0 33 49 24 54 -3 2 -17 -4 -31
-13z"/>
<path d="M2112 3799 c-1 -25 -9 -54 -17 -65 -8 -10 -14 -23 -15 -29 0 -5 10 4
21 22 15 23 19 44 16 75 l-4 43 -1 -46z"/>
<path d="M2051 3664 c-16 -37 -9 -39 11 -3 9 16 14 29 9 29 -4 0 -13 -12 -20
-26z"/>
<path d="M3810 3525 c-69 -47 -134 -95 -144 -105 -36 -36 -10 -30 48 10 31 22
61 40 66 40 4 0 10 3 12 8 4 10 95 72 106 72 14 0 45 37 40 50 -1 5 -59 -28
-128 -75z"/>
<path d="M2005 3579 c-4 -6 -5 -12 -2 -15 2 -3 7 2 10 11 7 17 1 20 -8 4z"/>
<path d="M6182 3555 c0 -16 4 -41 8 -55 8 -24 8 -24 8 5 0 17 -4 41 -8 55 -8
24 -8 24 -8 -5z"/>
<path d="M3715 3236 l-40 -24 -5 -259 c-5 -255 0 -383 12 -318 5 28 5 28 7 4
1 -22 5 -25 31 -21 29 4 30 6 30 53 0 32 4 49 13 49 9 0 9 2 0 8 -19 12 -28
129 -12 149 11 13 11 17 2 20 -16 6 -18 159 -2 169 6 3 8 16 5 28 -3 12 -2 54
2 94 5 39 6 72 3 72 -3 0 -24 -11 -46 -24z"/>
<path d="M5020 3156 c0 -8 4 -17 8 -20 4 -2 8 4 8 15 0 10 -4 19 -8 19 -4 0
-8 -6 -8 -14z"/>
<path d="M540 3128 c3 -3 21 -10 40 -17 19 -6 30 -7 25 -2 -6 5 -23 13 -40 17
-16 4 -28 5 -25 2z"/>
<path d="M4980 3099 c0 -17 4 -28 10 -24 6 3 10 17 10 31 0 13 -4 24 -10 24
-5 0 -10 -14 -10 -31z"/>
<path d="M5025 3089 c-4 -6 -5 -12 -2 -15 2 -3 7 2 10 11 7 17 1 20 -8 4z"/>
<path d="M925 2905 c-33 -7 -82 -11 -110 -9 l-50 3 50 -10 c27 -6 52 -14 55
-18 15 -24 222 -42 235 -21 4 6 -8 24 -25 40 -36 34 -60 36 -155 15z"/>
<path d="M2040 2848 l-62 -73 67 68 c37 38 65 70 62 73 -2 2 -32 -28 -67 -68z"/>
<path d="M1928 2903 c7 -3 16 -2 19 1 4 3 -2 6 -13 5 -11 0 -14 -3 -6 -6z"/>
<path d="M2028 2893 c-21 -26 -50 -74 -46 -78 2 -2 17 19 35 46 33 51 37 62
11 32z"/>
<path d="M708 2883 c6 -2 18 -2 25 0 6 3 1 5 -13 5 -14 0 -19 -2 -12 -5z"/>
<path d="M638 2873 c6 -2 18 -2 25 0 6 3 1 5 -13 5 -14 0 -19 -2 -12 -5z"/>
<path d="M2075 2645 c-38 -35 -72 -62 -75 -60 -3 2 -14 -8 -24 -22 -15 -20 -9
-18 33 13 28 21 51 42 51 47 0 4 4 6 9 3 5 -4 20 7 34 23 14 17 27 28 30 25 2
-3 7 4 10 16 3 11 4 20 4 20 -1 -1 -33 -29 -72 -65z"/>
<path d="M2225 2658 l-50 -53 53 50 c48 46 57 55 49 55 -1 0 -25 -24 -52 -52z"/>
<path d="M2342 2670 c0 -14 2 -19 5 -12 2 6 2 18 0 25 -3 6 -5 1 -5 -13z"/>
<path d="M3792 2660 c0 -14 2 -19 5 -12 2 6 2 18 0 25 -3 6 -5 1 -5 -13z"/>
<path d="M2313 2630 c0 -25 2 -35 4 -22 2 12 2 32 0 45 -2 12 -4 2 -4 -23z"/>
<path d="M2135 2620 c-3 -6 -33 -28 -66 -50 -32 -23 -59 -45 -59 -51 0 -5 31
12 68 38 38 27 69 54 69 61 0 15 -4 15 -12 2z"/>
<path d="M2252 2605 c0 -16 2 -22 5 -12 2 9 2 23 0 30 -3 6 -5 -1 -5 -18z"/>
<path d="M0 2549 c0 -5 5 -7 10 -4 5 3 10 8 10 11 0 2 -4 4 -10 4 -5 0 -10 -5
-10 -11z"/>
<path d="M2343 2520 c0 -25 2 -35 4 -22 2 12 2 32 0 45 -2 12 -4 2 -4 -23z"/>
<path d="M2122 2537 c-8 -10 -6 -13 9 -13 10 0 19 6 19 13 0 7 -4 13 -9 13 -5
0 -13 -6 -19 -13z"/>
<path d="M2308 2543 c-2 -5 -1 -24 3 -43 l6 -35 2 43 c1 39 -3 52 -11 35z"/>
<path d="M1984 2506 c-3 -9 -10 -14 -14 -11 -4 3 -10 -2 -14 -10 -3 -8 -2 -15
3 -15 13 0 45 39 38 46 -4 4 -9 -1 -13 -10z"/>
<path d="M2021 2471 c-19 -14 -21 -20 -10 -26 8 -5 11 -4 6 0 -4 5 5 17 20 27
16 10 24 18 18 18 -5 0 -21 -9 -34 -19z"/>
<path d="M2120 2450 c-11 -11 -20 -18 -20 -15 0 3 -9 1 -20 -5 -11 -6 -18 -15
-15 -20 8 -13 85 31 85 48 0 17 -7 15 -30 -8z"/>
<path d="M2251 2444 c0 -11 3 -14 6 -6 3 7 2 16 -1 19 -3 4 -6 -2 -5 -13z"/>
<path d="M1967 2436 c-10 -8 -14 -16 -10 -19 5 -3 14 3 21 14 14 22 13 23 -11
5z"/>
<path d="M2136 2392 c-2 -4 -1 -14 5 -22 7 -12 9 -10 9 8 0 23 -5 28 -14 14z"/>
<path d="M2312 2370 c0 -19 2 -27 5 -17 2 9 2 25 0 35 -3 9 -5 1 -5 -18z"/>
<path d="M2282 2350 c0 -19 2 -27 5 -17 2 9 2 25 0 35 -3 9 -5 1 -5 -18z"/>
<path d="M1950 2350 c0 -5 5 -10 11 -10 5 0 7 5 4 10 -3 6 -8 10 -11 10 -2 0
-4 -4 -4 -10z"/>
<path d="M2098 2344 c-38 -20 -36 -28 2 -9 17 9 30 18 30 20 0 7 -1 6 -32 -11z"/>
<path d="M2222 2330 c0 -19 2 -27 5 -17 2 9 2 25 0 35 -3 9 -5 1 -5 -18z"/>
<path d="M2044 2334 c-18 -14 -18 -15 4 -4 12 6 22 13 22 15 0 8 -5 6 -26 -11z"/>
<path d="M2186 2342 c-2 -4 -1 -14 5 -22 7 -12 9 -10 9 8 0 23 -5 28 -14 14z"/>
<path d="M2124 2295 c-14 -11 -15 -14 -2 -9 10 3 18 -1 21 -13 3 -12 5 -9 6
10 1 32 1 32 -25 12z"/>
<path d="M2000 2290 c-9 -6 -10 -10 -3 -10 6 0 15 5 18 10 8 12 4 12 -15 0z"/>
<path d="M2307 2293 c-11 -10 -8 -73 3 -73 6 0 10 18 10 40 0 41 -2 45 -13 33z"/>
<path d="M2260 2245 c0 -19 5 -35 10 -35 6 0 10 16 10 35 0 19 -4 35 -10 35
-5 0 -10 -16 -10 -35z"/>
<path d="M2233 2235 c0 -22 2 -30 4 -17 2 12 2 30 0 40 -3 9 -5 -1 -4 -23z"/>
<path d="M2042 2251 c-11 -7 -11 -9 0 -14 9 -3 15 1 15 9 0 8 -1 14 -1 14 -1
0 -7 -4 -14 -9z"/>
<path d="M2795 2250 c-3 -5 -1 -10 4 -10 6 0 11 5 11 10 0 6 -2 10 -4 10 -3 0
-8 -4 -11 -10z"/>
<path d="M2890 2240 c0 -11 2 -20 4 -20 2 0 6 9 9 20 3 11 1 20 -4 20 -5 0 -9
-9 -9 -20z"/>
<path d="M2183 2215 c0 -22 2 -30 4 -17 2 12 2 30 0 40 -3 9 -5 -1 -4 -23z"/>
<path d="M2755 2240 c-3 -5 -2 -10 4 -10 5 0 13 5 16 10 3 6 2 10 -4 10 -5 0
-13 -4 -16 -10z"/>
<path d="M2862 2225 c0 -16 2 -22 5 -12 2 9 2 23 0 30 -3 6 -5 -1 -5 -18z"/>
<path d="M2832 2220 c0 -14 2 -19 5 -12 2 6 2 18 0 25 -3 6 -5 1 -5 -13z"/>
<path d="M2142 2205 c0 -16 2 -22 5 -12 2 9 2 23 0 30 -3 6 -5 -1 -5 -18z"/>
<path d="M2790 2204 c0 -8 5 -12 10 -9 6 3 10 10 10 16 0 5 -4 9 -10 9 -5 0
-10 -7 -10 -16z"/>
<path d="M2340 2200 c-9 -6 -10 -10 -3 -10 6 0 15 5 18 10 8 12 4 12 -15 0z"/>
<path d="M2761 2194 c0 -11 3 -14 6 -6 3 7 2 16 -1 19 -3 4 -6 -2 -5 -13z"/>
<path d="M2832 2165 c0 -16 2 -22 5 -12 2 9 2 23 0 30 -3 6 -5 -1 -5 -18z"/>
<path d="M2268 2173 c7 -3 16 -2 19 1 4 3 -2 6 -13 5 -11 0 -14 -3 -6 -6z"/>
<path d="M2327 2163 c-4 -3 -8 -18 -8 -32 -1 -25 -2 -25 -9 4 -6 25 -8 20 -9
-27 -1 -51 1 -56 19 -51 17 5 20 14 20 59 0 55 -1 59 -13 47z"/>
<path d="M2353 2120 c0 -30 2 -43 4 -27 2 15 2 39 0 55 -2 15 -4 2 -4 -28z"/>
<path d="M5556 2114 c-8 -20 20 -47 50 -49 16 0 24 5 24 16 0 10 3 24 6 33 5
13 -1 16 -34 16 -27 0 -42 -5 -46 -16z"/>
<path d="M5547 2030 c-38 -23 -35 -18 -51 -103 -8 -42 -20 -86 -26 -98 -10
-17 -9 -20 1 -17 8 3 16 15 19 28 3 13 10 25 17 27 11 4 25 -32 15 -42 -8 -8
-2 -89 7 -95 5 -3 11 -17 14 -31 5 -19 -3 -41 -30 -87 -20 -34 -40 -62 -45
-62 -4 0 -8 54 -8 120 l0 121 -30 -16 c-16 -8 -38 -15 -50 -15 -19 0 -20 -6
-20 -100 l0 -100 33 0 c26 0 36 -6 51 -31 16 -27 20 -29 28 -15 11 20 28 21
28 1 0 -9 9 -15 25 -15 21 0 23 3 16 23 -9 23 -5 44 12 65 8 10 18 -2 44 -50
18 -34 33 -63 33 -64 0 -2 -8 -5 -17 -7 -11 -3 -7 -5 10 -6 33 -1 34 6 6 119
-21 91 -19 160 7 160 9 0 14 12 15 33 2 54 4 60 16 64 6 2 14 -6 17 -19 3 -13
3 21 1 74 -2 54 -7 103 -11 109 -12 19 -22 -18 -24 -81 -1 -62 -13 -52 -25 20
-7 45 -28 95 -42 103 -5 2 -20 -3 -36 -13z"/>
<path d="M4760 1953 c-185 -13 -380 -54 -487 -103 -67 -31 -69 -31 -187 -24
-138 8 -141 4 -41 -66 33 -23 75 -52 94 -66 39 -27 86 -30 330 -15 113 7 136
11 148 26 20 28 16 79 -7 100 -18 16 -35 17 -177 12 l-158 -6 70 34 c113 55
217 70 507 70 135 0 244 3 242 7 -12 19 -225 38 -334 31z"/>
<path d="M1688 1852 c-9 -2 -18 -9 -21 -15 -6 -16 42 -15 68 1 20 13 19 13 -2
9 -12 -3 -23 -2 -25 2 -2 4 -10 5 -20 3z"/>
<path d="M1143 1823 c9 -2 23 -2 30 0 6 3 -1 5 -18 5 -16 0 -22 -2 -12 -5z"/>
<path d="M1238 1782 c-4 -12 -2 -25 4 -28 15 -10 19 1 10 26 l-9 24 -5 -22z"/>
<path d="M2577 1663 c-17 -39 -21 -67 -22 -147 0 -71 4 -101 13 -103 19 -7 14
-30 -9 -36 -37 -10 2 -51 69 -72 31 -10 75 -23 97 -30 22 -7 92 -29 155 -48
63 -19 189 -58 280 -86 91 -28 221 -67 290 -86 103 -30 130 -42 154 -68 17
-17 41 -33 55 -35 14 -2 104 -21 201 -43 96 -22 255 -56 353 -76 97 -20 176
-38 173 -40 -2 -2 -34 2 -72 8 -38 7 -84 12 -102 11 -18 0 -30 3 -27 7 5 8
-94 22 -149 20 -20 0 -2 -7 48 -19 92 -21 125 -42 44 -28 -29 5 -85 15 -125
23 -75 15 -127 9 -101 -12 7 -6 54 -24 103 -41 125 -43 155 -55 155 -64 0 -9
-50 1 -65 13 -6 4 -36 9 -67 11 -31 1 -54 6 -52 10 6 10 -5 9 -31 -2 -18 -7
-19 -8 -2 -15 30 -12 19 -20 -28 -20 -24 0 -50 6 -57 13 -9 9 -4 12 28 12 29
0 35 3 24 10 -8 5 -33 10 -55 10 -29 0 -36 -3 -25 -10 8 -5 12 -11 10 -14 -7
-6 -130 22 -153 35 -23 13 -106 9 -104 -5 2 -11 -16 -11 -131 -4 -46 3 -52 1
-48 -14 2 -10 -1 -21 -6 -25 -7 -3 -8 -1 -4 5 8 14 -3 15 -22 3 -13 -8 160
-92 410 -200 227 -98 545 -249 643 -306 62 -36 64 -42 8 -26 -26 7 -31 7 -26
-5 4 -10 -3 -14 -20 -14 -14 0 -28 -4 -31 -9 -3 -5 -26 -12 -51 -15 -24 -4
-48 -14 -53 -21 -9 -17 2 -22 -187 85 -346 195 -718 387 -803 415 -31 10 -64
14 -79 10 l-27 -6 30 -24 c38 -31 26 -31 -37 0 -27 14 -55 25 -62 24 -12 -2
-19 0 -122 45 l-60 26 30 -26 30 -25 -30 6 -30 7 25 -21 c31 -26 28 -26 -38
-1 -60 23 -76 25 -66 8 4 -6 3 -8 -4 -5 -5 4 -21 3 -33 -2 -23 -8 -22 -9 18
-29 42 -22 309 -188 401 -250 69 -47 59 -54 -12 -8 -31 20 -82 49 -113 65 -32
17 -77 42 -100 56 -24 14 -43 24 -43 22 0 -2 42 -31 93 -63 110 -69 281 -194
274 -200 -2 -2 -16 0 -31 6 -30 11 -86 13 -110 4 -11 -4 -14 -14 -10 -29 5
-20 2 -22 -33 -21 -31 1 -37 -2 -35 -16 2 -10 1 -18 -2 -18 -8 0 -278 191
-436 309 -165 124 -172 128 -238 162 -33 17 -54 20 -97 17 -30 -3 -55 -2 -55
1 0 11 -55 9 -62 -2 -6 -9 -12 -9 -28 1 -25 15 -54 16 -44 1 3 -6 -13 0 -38
14 -32 17 -50 22 -66 16 -27 -10 -27 -14 -4 -47 33 -48 34 -52 15 -46 -36 11
-68 29 -76 41 -4 7 -15 13 -24 13 -9 0 -25 8 -35 17 -18 16 -18 16 -12 0 4
-10 1 -17 -6 -17 -25 0 11 -81 57 -128 18 -18 16 -27 -2 -12 -8 7 -15 9 -15 5
0 -9 -55 35 -102 82 -27 27 -47 38 -72 40 -41 2 -42 -1 -20 -52 8 -20 13 -42
10 -48 -3 -8 -5 -8 -5 1 -1 7 -5 11 -10 8 -8 -5 -183 222 -210 272 -6 12 -18
22 -27 22 -8 0 -17 8 -21 18 -3 9 -14 26 -23 37 -14 17 -85 137 -198 335 -15
25 -32 51 -38 57 -7 7 -20 33 -30 58 -9 25 -19 44 -21 41 -14 -14 191 -467
290 -642 116 -203 255 -439 341 -579 l89 -145 2193 0 2194 0 0 474 c0 370 -3
475 -12 479 -7 2 -123 23 -258 47 -135 23 -267 49 -294 57 -54 16 -392 82
-581 114 -65 11 -121 21 -123 24 -13 12 96 13 168 1 162 -27 1007 -179 1073
-192 l27 -6 0 79 0 79 -327 43 c-181 23 -390 51 -466 62 -160 22 -197 23 -197
7 0 -6 -2 -9 -5 -7 -6 7 14 77 24 84 5 3 17 2 26 -1 12 -5 13 -9 5 -14 -12 -8
1 -10 360 -60 314 -44 521 -70 553 -70 24 0 27 4 27 33 l0 33 -117 12 c-65 7
-235 24 -378 38 -293 28 -474 49 -482 58 -10 10 45 7 172 -9 66 -8 215 -24
330 -35 116 -11 257 -27 314 -35 153 -22 161 -21 161 14 0 28 -1 28 -72 34
-62 5 -729 67 -870 81 -37 4 -48 2 -48 -9 0 -19 -19 -23 -150 -34 -63 -6 -148
-15 -189 -21 -41 -6 -75 -9 -77 -7 -2 1 -6 32 -10 68 l-6 66 108 13 c60 7 119
14 132 14 12 1 22 4 22 9 0 18 31 4 59 -28 17 -20 31 -33 31 -29 0 12 -63 93
-76 98 -18 7 -273 -22 -301 -34 -12 -5 -26 -18 -32 -29 -9 -16 -8 -18 9 -14
15 4 21 -3 29 -39 6 -23 15 -58 20 -75 5 -18 6 -35 2 -37 -4 -3 -79 -12 -166
-21 -193 -20 -220 -30 -326 -132 l-76 -73 -157 0 -157 0 -16 38 c-9 20 -29 80
-45 132 -84 265 -212 385 -334 309 -42 -26 -90 -123 -99 -200 -5 -50 -2 -80
21 -213 l7 -39 -89 48 c-49 26 -107 60 -129 75 -70 48 -136 69 -282 90 -195
29 -229 22 -68 -14 137 -30 181 -43 173 -51 -4 -4 -171 33 -333 73 -28 7 -30
12 -37 67 -10 83 -28 155 -39 155 -4 0 -5 7 -2 17 5 12 3 14 -7 8 -10 -6 -12
-4 -7 9 10 25 -32 96 -55 96 -13 0 -26 -15 -41 -47z m75 -10 c10 -9 18 -21 18
-26 0 -6 -9 -2 -21 9 -21 19 -21 18 -40 -5 -23 -29 -26 -96 -4 -105 8 -3 15
-10 15 -17 0 -6 -7 -9 -15 -5 -12 4 -15 -4 -15 -39 0 -25 2 -45 5 -45 3 0 14
15 25 33 24 39 25 33 5 -18 -24 -56 -1 -103 26 -54 6 13 9 42 6 68 -5 42 -4
44 9 21 7 -14 13 -34 14 -45 0 -24 -36 -85 -50 -85 -19 0 -48 83 -51 145 -3
94 0 118 21 153 23 37 27 38 52 15z m1039 -126 c56 -38 118 -144 84 -144 -10
0 -15 10 -15 28 0 20 -13 42 -43 74 -36 37 -50 45 -81 45 -20 0 -48 -7 -61
-16 -14 -9 -25 -13 -25 -10 0 11 65 46 86 46 12 0 36 -10 55 -23z m-152 -59
c-7 -13 -18 -66 -25 -118 l-13 -95 4 82 c4 74 25 153 40 153 3 0 0 -10 -6 -22z
m1848 -144 c-3 -3 -12 -4 -19 -1 -8 3 -5 6 6 6 11 1 17 -2 13 -5z m101 -11
c-10 -2 -28 -2 -40 0 -13 2 -5 4 17 4 22 1 32 -1 23 -4z m-1797 -50 c0 -10 3
-13 5 -6 3 7 20 3 51 -14 37 -22 47 -23 55 -12 20 29 -2 -82 -26 -130 -46 -90
-114 -116 -173 -67 -35 30 -71 89 -49 80 8 -3 17 -12 20 -20 10 -26 24 -15 28
22 3 21 -1 41 -8 48 -9 8 -1 23 35 62 51 57 61 63 62 37z m986 -30 c2 -6 -21
-32 -52 -57 -42 -34 -65 -46 -88 -46 l-32 1 37 13 c40 14 122 75 114 84 -3 3
-23 9 -43 13 -36 7 -36 7 11 6 27 -1 51 -7 53 -14z m-1141 -100 c-6 -6 -26 67
-25 92 0 11 7 -4 15 -34 8 -30 12 -56 10 -58z m989 92 c-62 -17 -69 -17 -30 0
17 8 41 14 55 14 15 0 5 -6 -25 -14z m-65 -95 c11 -7 -1 -9 -40 -9 -46 1 -50
3 -25 9 43 11 48 11 65 0z m817 -286 c-3 -3 -12 -4 -19 -1 -8 3 -5 6 6 6 11 1
17 -2 13 -5z m-304 -41 c-7 -2 -19 -2 -25 0 -7 3 -2 5 12 5 14 0 19 -2 13 -5z
m-348 -18 c24 -4 26 -3 10 4 -13 6 31 9 135 9 85 0 145 -3 132 -5 -18 -4 7
-19 105 -68 130 -65 147 -79 58 -47 -29 10 -63 15 -80 12 l-30 -5 32 -14 c33
-14 60 -38 51 -46 -3 -3 -126 35 -274 85 -248 84 -273 97 -139 75z m-389 -116
c3 -5 -7 -4 -23 3 -41 17 -53 30 -15 17 18 -6 35 -15 38 -20z"/>
<path d="M3691 1232 c-1 -7 -10 -25 -22 -41 -13 -18 -23 -50 -26 -89 -6 -60
-5 -61 22 -68 43 -11 60 6 59 57 0 40 -32 172 -33 141z"/>
<path d="M4890 711 c0 -9 52 -22 59 -15 6 6 -1 11 -31 18 -16 3 -28 2 -28 -3z"/>
<path d="M2734 1704 c-8 -3 -2 -33 17 -94 16 -50 29 -99 29 -110 0 -21 14 -27
24 -11 4 5 -1 38 -9 73 -8 35 -15 82 -15 106 0 42 -11 50 -46 36z"/>
<path d="M1118 1633 c34 -2 88 -2 120 0 31 2 3 3 -63 3 -66 0 -92 -1 -57 -3z"/>
<path d="M4428 1523 c12 -2 32 -2 45 0 12 2 2 4 -23 4 -25 0 -35 -2 -22 -4z"/>
<path d="M1390 1474 c-80 -7 -173 -14 -207 -15 -42 -3 -63 -8 -63 -16 0 -9 12
-11 43 -8 23 3 118 12 211 20 94 9 172 17 174 19 10 11 -26 11 -158 0z"/>
<path d="M4937 1484 c-12 -12 -8 -34 7 -34 8 0 16 -5 18 -12 3 -7 7 -4 12 7 4
11 4 16 0 12 -5 -4 -13 2 -19 13 -6 11 -14 17 -18 14z"/>
<path d="M4970 1480 c0 -5 4 -10 9 -10 5 0 12 -8 14 -17 3 -11 5 -7 6 10 1 18
-4 27 -14 27 -8 0 -15 -4 -15 -10z"/>
<path d="M5042 1465 c6 -14 13 -23 16 -21 7 7 -9 46 -18 46 -5 0 -4 -11 2 -25z"/>
<path d="M4890 1480 c-1 -3 -4 -15 -5 -28 -1 -15 1 -20 7 -14 6 6 8 18 5 28
-3 11 -6 17 -7 14z"/>
<path d="M4910 1460 c0 -11 4 -20 9 -20 5 0 7 9 4 20 -3 11 -7 20 -9 20 -2 0
-4 -9 -4 -20z"/>
<path d="M4998 1393 c12 -2 30 -2 40 0 9 3 -1 5 -23 4 -22 0 -30 -2 -17 -4z"/>
<path d="M4368 1343 c12 -2 30 -2 40 0 9 3 -1 5 -23 4 -22 0 -30 -2 -17 -4z"/>
<path d="M4263 1333 c15 -2 39 -2 55 0 15 2 2 4 -28 4 -30 0 -43 -2 -27 -4z"/>
<path d="M4153 1323 c15 -2 37 -2 50 0 12 2 0 4 -28 4 -27 0 -38 -2 -22 -4z"/>
<path d="M4038 1313 c6 -2 18 -2 25 0 6 3 1 5 -13 5 -14 0 -19 -2 -12 -5z"/>
<path d="M3968 1303 c7 -3 16 -2 19 1 4 3 -2 6 -13 5 -11 0 -14 -3 -6 -6z"/>
<path d="M52 907 c-52 -53 -53 -55 -50 -108 l3 -54 70 88 c80 101 82 106 64
118 -24 15 -33 10 -87 -44z"/>
<path d="M219 914 c-19 -20 -42 -39 -52 -43 -10 -4 -51 -47 -92 -96 l-75 -90
0 -342 0 -343 765 0 765 0 -14 35 c-9 20 -32 77 -52 128 -20 51 -67 169 -104
262 -37 94 -89 228 -116 300 -37 98 -50 123 -52 102 -2 -16 2 -35 8 -42 9 -11
9 -23 0 -50 -6 -19 -15 -33 -20 -30 -5 3 -10 -7 -12 -22 -3 -25 -6 -28 -38
-25 -24 2 -39 -3 -47 -15 -8 -10 -13 -12 -13 -4 0 8 -9 6 -27 -7 -16 -10 -33
-17 -40 -15 -7 2 -10 -3 -7 -14 2 -10 1 -31 -4 -47 -7 -27 -8 -26 -21 23 -7
28 -17 51 -22 51 -5 0 -9 -5 -9 -11 0 -5 -4 -7 -10 -4 -6 4 -10 -23 -11 -72
-1 -74 -2 -76 -13 -41 -6 20 -17 43 -24 50 -6 6 -12 18 -12 26 0 7 -4 10 -10
7 -6 -4 -11 6 -11 22 -1 25 -2 24 -8 -7 -6 -34 -7 -32 -19 28 -11 53 -16 62
-27 52 -8 -6 -19 -9 -25 -5 -5 3 -10 3 -10 -2 0 -13 -61 -44 -72 -37 -6 4 -17
-1 -24 -11 -12 -16 -14 -14 -22 16 l-9 34 -21 -65 -22 -65 4 98 c4 83 2 96 -8
81 -13 -17 -14 -16 -20 4 -4 12 -11 20 -16 17 -5 -3 -15 1 -23 9 -15 15 -57
11 -57 -6 0 -5 -4 -7 -10 -3 -5 3 -7 11 -5 18 3 7 1 25 -3 41 -8 28 -9 27 -47
-48 -22 -42 -41 -72 -43 -67 -2 5 4 23 12 40 18 33 21 55 7 47 -5 -4 -12 12
-16 34 -7 42 -13 48 -33 28 -10 -10 -15 -10 -22 2 -7 12 -12 12 -22 2 -17 -17
-38 -15 -38 3 0 8 -7 15 -15 15 -13 0 -12 7 5 41 12 23 20 43 18 45 -3 2 -20
-12 -39 -32z"/>
<path d="M7 903 c-4 -3 -7 -11 -7 -17 0 -6 5 -5 12 2 6 6 9 14 7 17 -3 3 -9 2
-12 -2z"/>
<path d="M3300 730 c19 -11 40 -19 45 -19 6 0 -6 8 -25 19 -19 11 -39 19 -45
19 -5 0 6 -8 25 -19z"/>
<path d="M2890 516 c0 -3 9 -10 20 -16 11 -6 20 -8 20 -6 0 3 -9 10 -20 16
-11 6 -20 8 -20 6z"/>
</g>
</svg>
