<?xml version="1.0" standalone="no"?>
<!DOCTYPE svg PUBLIC "-//W3C//DTD SVG 20010904//EN"
 "http://www.w3.org/TR/2001/REC-SVG-20010904/DTD/svg10.dtd">
<svg version="1.0" xmlns="http://www.w3.org/2000/svg"
 width="626.000000pt" height="447.000000pt" viewBox="0 0 626.000000 447.000000"
 preserveAspectRatio="xMidYMid meet">

<g transform="translate(0.000000,447.000000) scale(0.100000,-0.100000)"
fill="#000000" stroke="none">
<path d="M4485 3841 c-308 -148 -576 -283 -596 -300 -47 -39 -89 -123 -96
-193 l-5 -55 -66 -12 c-140 -26 -250 -99 -298 -197 -20 -41 -31 -53 -43 -49
-31 12 -239 44 -366 56 -175 17 -497 17 -676 0 -81 -7 -151 -16 -156 -20 -14
-9 -23 -64 -14 -80 7 -10 39 -11 166 -2 180 13 357 14 535 4 l123 -6 27 -61
c44 -97 80 -222 87 -301 6 -75 -9 -166 -30 -183 -11 -9 -242 -2 -525 16 l-113
7 -24 60 c-16 38 -40 75 -67 101 -37 35 -52 42 -100 47 -31 4 -63 10 -71 13
-21 8 -62 -80 -87 -188 -50 -221 -66 -494 -34 -610 5 -16 -4 -18 -88 -18 l-93
0 0 327 c0 339 -11 468 -41 480 -21 8 -17 32 12 70 18 23 23 38 16 45 -11 11
-93 -99 -188 -254 l-59 -97 -60 -5 c-165 -15 -400 -38 -401 -40 -1 0 5 -39 12
-86 7 -47 13 -102 13 -123 l1 -39 40 7 c44 8 56 -9 18 -25 -17 -6 -7 -9 42 -9
49 0 59 3 43 9 -24 10 -31 30 -10 30 28 -1 104 -26 126 -42 18 -13 22 -22 17
-42 -6 -26 -51 -56 -82 -56 -10 0 -33 -5 -51 -12 -26 -9 -43 -9 -79 0 -26 7
-48 11 -50 9 -3 -2 -23 -337 -26 -422 -2 -85 -43 -186 -68 -170 -5 3 -11 -2
-14 -11 -5 -12 -10 -14 -20 -5 -7 6 -16 7 -21 3 -4 -4 -5 9 -1 28 4 19 10 53
12 75 4 35 3 37 -7 18 -12 -24 -45 -33 -36 -11 3 7 8 20 11 28 5 11 -1 15 -21
17 -17 1 -40 14 -60 37 -33 36 -33 36 -33 141 l0 106 -87 -3 -87 -3 -11 -52
c-16 -72 -61 -159 -95 -183 -15 -11 -51 -25 -78 -31 l-50 -12 -13 -66 c-7 -39
-13 -157 -14 -286 -1 -148 -7 -256 -18 -330 -23 -151 -38 -386 -26 -401 6 -8
-2 -34 -26 -79 -29 -53 -34 -70 -23 -76 17 -11 209 -11 226 0 10 6 11 13 3 27
-27 49 -51 118 -42 123 5 4 17 80 26 171 20 206 47 402 82 591 l26 147 41 -5
c74 -8 69 11 62 -246 -3 -127 -9 -307 -12 -399 -4 -100 -2 -185 4 -214 7 -34
7 -53 0 -61 -11 -14 -14 -115 -3 -133 10 -16 91 -12 105 5 16 19 46 19 54 0 5
-13 24 -15 113 -13 l108 3 0 29 c0 33 -7 37 -90 61 -33 9 -75 26 -94 38 l-34
20 6 216 c3 119 13 259 21 311 9 52 16 130 16 173 l0 77 55 0 c36 0 57 -4 59
-12 2 -7 13 -45 25 -85 79 -260 399 -392 633 -261 21 12 41 19 44 15 4 -3 9
-99 12 -213 l5 -206 -24 -22 c-24 -22 -75 -43 -156 -65 -32 -9 -44 -18 -49
-36 -3 -13 -3 -28 0 -33 3 -5 53 -10 110 -11 95 -2 106 0 124 19 20 21 21 21
39 3 22 -22 107 -31 118 -13 11 18 8 119 -3 133 -7 8 -7 29 -2 57 13 63 12
274 -1 410 -15 160 -15 176 6 253 l18 67 52 0 c52 0 53 0 59 -35 4 -20 6 -65
5 -100 -1 -39 3 -70 10 -79 14 -17 44 -211 61 -406 7 -74 17 -141 22 -147 7
-9 4 -27 -11 -58 -11 -25 -21 -51 -21 -59 0 -8 -6 -17 -12 -19 -34 -14 26 -27
122 -27 96 0 156 13 123 27 -7 2 -13 10 -13 16 0 7 -11 32 -24 57 -17 32 -22
54 -19 81 9 61 -20 388 -43 502 l-6 27 166 0 165 0 3 143 3 142 78 3 77 3 0
-35 c0 -64 6 -66 249 -66 246 0 256 3 254 64 l-1 36 551 0 551 0 27 -33 c27
-32 27 -32 131 -35 l104 -4 12 -54 c16 -80 49 -140 114 -209 87 -93 203 -145
323 -145 199 1 381 145 432 340 l17 70 151 0 c151 0 212 9 227 32 16 27 8 86
-16 115 l-24 27 23 31 c30 40 58 154 57 239 0 64 -4 78 -54 174 -79 156 -152
225 -335 316 -147 74 -357 138 -587 181 -81 15 -125 34 -475 209 -394 196
-553 267 -766 341 -65 24 -121 47 -122 52 -6 17 46 55 86 63 23 4 85 1 143 -6
73 -10 118 -11 153 -4 28 5 71 12 96 15 30 4 157 59 380 166 184 89 433 208
554 266 121 57 224 108 228 112 7 7 -222 502 -242 523 -3 4 -258 -113 -566
-261z m519 13 c10 -26 7 -30 -34 -49 -39 -17 -51 -37 -30 -50 5 -3 24 2 41 11
26 13 33 14 40 2 15 -23 10 -35 -21 -48 -31 -13 -34 -18 -24 -44 5 -13 12 -12
51 7 44 22 45 22 59 2 18 -24 14 -27 -68 -64 l-68 -30 -50 106 c-28 58 -49
107 -48 109 5 4 133 62 139 63 4 1 10 -6 13 -15z m-248 -293 c2 -3 21 3 41 13
29 14 38 15 44 4 17 -26 8 -38 -51 -68 l-60 -30 -50 100 c-27 55 -50 104 -50
110 0 6 10 14 23 19 20 8 25 2 61 -68 21 -42 40 -78 42 -80z m-202 -30 c42
-47 76 -88 76 -91 0 -4 -11 -12 -24 -18 -20 -9 -27 -7 -41 8 -16 18 -20 18
-47 4 -23 -12 -29 -20 -24 -38 4 -15 -1 -25 -15 -35 -12 -7 -23 -11 -25 -9 -2
2 -12 57 -22 122 l-19 117 26 14 c14 8 29 13 32 12 4 -1 41 -40 83 -86z m-282
-45 c17 -12 17 -14 -1 -31 -11 -9 -25 -14 -30 -10 -17 10 -51 -4 -51 -21 0
-13 10 -14 54 -9 50 7 57 5 80 -18 35 -35 34 -72 -5 -108 -40 -37 -98 -43
-129 -13 -13 13 -13 16 5 27 11 6 36 12 55 12 25 0 36 5 38 18 3 15 -5 17 -54
17 -69 0 -94 18 -94 66 0 60 85 106 132 70z m-211 -145 c27 -27 39 -77 23 -93
-3 -3 -27 3 -55 13 -27 11 -57 19 -67 19 -9 0 -23 4 -31 9 -28 18 34 80 82 81
10 0 32 -13 48 -29z m-252 -116 c17 -58 87 -137 149 -166 55 -28 38 -36 -39
-20 -70 15 -183 14 -223 -3 -18 -7 -42 -26 -54 -40 l-20 -27 -94 27 c-51 14
-96 28 -101 31 -12 7 44 102 80 134 45 39 121 77 191 93 92 23 96 22 111 -29z
m210 20 c19 -6 37 -17 39 -23 5 -16 -44 -33 -74 -26 -23 6 -64 47 -64 65 0 9
47 2 99 -16z m-624 -305 c17 -5 53 -11 81 -14 62 -8 210 -57 364 -122 254
-107 864 -423 848 -440 -3 -2 -42 -13 -87 -24 l-83 -21 -38 35 c-38 34 -119
66 -167 66 -26 0 -43 -32 -43 -81 0 -28 -1 -29 -54 -29 -30 0 -96 9 -147 19
-52 10 -128 22 -169 25 -80 6 -448 47 -465 51 -6 2 -17 38 -24 81 -33 202 -73
336 -139 466 -4 9 77 1 123 -12z m2168 -774 c108 -37 184 -83 247 -148 42 -43
86 -115 76 -125 -2 -3 -20 0 -38 6 -38 12 -252 41 -304 41 -50 0 -68 13 -115
81 -57 84 -73 127 -60 156 15 34 74 30 194 -11z m221 -408 c31 -34 56 -65 56
-70 0 -10 -191 -11 -205 0 -16 11 -105 118 -105 126 0 3 45 6 99 6 l99 0 56
-62z m-4123 -110 c22 -6 39 -17 39 -25 0 -10 -5 -11 -19 -3 -32 16 -42 12 -35
-15 5 -20 -15 -76 -53 -146 -2 -4 3 -9 11 -12 11 -5 28 12 56 53 47 69 64 81
25 18 -39 -64 -49 -87 -40 -96 4 -4 12 2 19 13 17 30 92 105 105 105 7 0 11
-31 11 -95 l0 -95 -45 0 c-55 0 -59 -17 -7 -25 58 -10 61 -13 11 -14 -38 -1
-48 -5 -52 -21 -5 -19 -2 -20 43 -14 l47 6 7 -92 c4 -50 5 -94 3 -97 -6 -5
-46 15 -62 31 -6 6 -24 33 -39 59 -45 77 -54 42 -11 -43 20 -40 35 -74 33 -76
-2 -2 -22 27 -43 64 -21 37 -40 69 -41 70 -1 2 -12 1 -23 -3 -20 -6 -19 -8 9
-47 31 -43 55 -111 45 -128 -16 -26 63 7 102 43 13 11 26 17 30 14 11 -12 -29
-46 -86 -73 -171 -82 -380 -3 -462 173 -34 73 -33 208 2 283 45 96 112 157
204 186 51 16 166 17 216 2z m768 -18 c28 0 37 -40 22 -104 -11 -48 -61 -117
-61 -85 -1 10 -3 10 -10 -2 -7 -12 -34 -17 -58 -10 -1 1 1 9 6 19 6 9 12 42
16 72 5 45 4 50 -5 28 -9 -25 -39 -40 -39 -20 0 11 30 92 41 114 9 17 12 17
39 3 16 -8 38 -15 49 -15z m2818 8 c80 -31 162 -112 192 -193 33 -87 27 -208
-13 -282 -16 -29 -33 -50 -39 -46 -6 3 -7 1 -3 -6 11 -17 -53 -74 -121 -108
-50 -24 -70 -28 -143 -28 -72 0 -94 5 -145 28 -98 46 -165 123 -191 222 -47
175 40 348 209 417 63 25 181 23 254 -4z"/>
<path d="M4476 3505 c9 -37 7 -36 24 -25 13 8 11 13 -8 32 l-23 23 7 -30z"/>
<path d="M1414 1610 c-33 -16 -71 -41 -84 -55 l-23 -25 30 0 c23 0 40 -10 70
-43 22 -24 42 -50 45 -57 2 -7 9 -11 15 -7 7 4 -1 30 -24 73 -46 86 -36 95 12
10 38 -69 41 -71 64 -57 11 7 8 16 -15 47 -24 30 -29 47 -29 91 0 29 0 53 -1
53 0 0 -28 -13 -60 -30z"/>
<path d="M1236 1386 c-7 -28 -7 -115 0 -143 l6 -22 29 22 c22 16 48 22 98 25
61 4 68 6 64 23 -5 16 -15 19 -77 19 -39 0 -78 5 -86 11 -11 7 8 9 67 7 51 -2
83 1 83 7 0 10 -5 11 -78 14 -33 1 -50 8 -72 29 -28 28 -29 28 -34 8z"/>
<path d="M1512 1374 c-28 -19 -30 -74 -4 -97 42 -38 102 -8 102 51 0 32 -29
62 -60 62 -9 0 -26 -7 -38 -16z"/>
<path d="M1434 1172 c-20 -38 -43 -64 -67 -78 l-36 -20 52 -31 c29 -17 62 -34
73 -37 19 -6 21 -2 21 33 0 26 11 59 31 94 17 30 28 58 25 61 -17 16 -37 0
-79 -64 -74 -110 -68 -87 12 47 12 21 15 35 9 42 -7 6 -20 -10 -41 -47z"/>
<path d="M4970 1610 c-19 -10 -51 -32 -70 -49 l-35 -30 31 -1 c24 0 41 -11 73
-45 22 -24 41 -49 41 -55 0 -5 7 -10 15 -10 20 0 20 0 -21 75 -20 36 -34 68
-31 71 3 3 22 -24 42 -61 26 -46 42 -65 52 -61 8 3 17 6 19 6 2 0 -10 25 -27
55 -23 41 -30 65 -27 90 5 41 -8 44 -62 15z"/>
<path d="M5206 1605 c5 -20 -15 -76 -53 -146 -2 -4 3 -9 11 -12 11 -5 28 12
56 53 47 69 64 81 25 18 -39 -64 -49 -87 -41 -96 5 -4 16 4 25 18 33 50 74 90
97 96 32 8 18 25 -51 65 -62 36 -77 37 -69 4z"/>
<path d="M4796 1385 c-8 -21 -6 -123 3 -155 6 -22 8 -23 14 -7 10 26 68 47
131 47 49 0 54 2 49 20 -5 17 -14 20 -67 21 -33 0 -70 5 -81 10 -14 6 5 8 59
6 60 -1 81 2 84 12 3 10 -2 12 -21 8 -38 -10 -115 8 -141 32 -21 20 -24 20
-30 6z"/>
<path d="M5398 1377 c-19 -14 -48 -22 -88 -25 -103 -8 -67 -25 70 -35 25 -2 6
-4 -41 -5 -74 -2 -87 -5 -91 -20 -5 -16 2 -18 62 -18 47 0 75 -5 93 -17 15 -9
29 -17 32 -17 8 0 6 148 -2 153 -5 3 -20 -5 -35 -16z"/>
<path d="M5072 1374 c-28 -19 -30 -74 -4 -97 42 -38 102 -8 102 51 0 32 -29
62 -60 62 -9 0 -26 -7 -38 -16z"/>
<path d="M4995 1173 c-18 -34 -42 -64 -62 -76 -18 -10 -30 -23 -27 -28 7 -11
83 -55 110 -63 19 -6 21 -3 21 33 0 26 11 59 31 94 17 30 28 58 25 61 -17 16
-37 0 -79 -64 -54 -80 -69 -93 -28 -22 58 99 59 101 49 111 -7 7 -20 -8 -40
-46z"/>
<path d="M5206 1222 c-3 -6 10 -43 29 -83 20 -39 35 -73 32 -75 -2 -2 -21 27
-43 66 -35 63 -58 82 -77 64 -3 -3 7 -24 23 -46 34 -46 54 -102 46 -125 -5
-12 -2 -14 16 -8 13 4 31 7 40 8 9 1 15 3 13 5 -2 3 11 17 30 32 l35 28 -30
12 c-26 11 -52 43 -96 116 -7 12 -13 14 -18 6z"/>
<path d="M697 3189 c-54 -28 -77 -71 -77 -143 0 -48 3 -57 15 -52 8 3 15 2 16
-2 0 -4 4 -46 8 -93 9 -104 39 -172 85 -196 38 -20 111 -21 151 -2 38 18 75
89 75 144 l-1 40 -12 -29 c-11 -25 -14 -27 -26 -13 -10 13 -26 15 -79 10 -55
-4 -71 -10 -88 -30 -35 -41 -56 -27 -73 45 -12 51 -13 72 -3 108 7 24 12 58
12 74 0 35 -1 35 48 14 20 -8 65 -18 99 -21 54 -5 60 -8 45 -19 -22 -16 -10
-29 16 -15 16 8 25 6 46 -10 l26 -20 1 38 c3 111 -10 144 -72 175 -49 25 -162
24 -212 -3z m223 -375 c0 -54 -80 -85 -122 -47 -16 14 -25 53 -14 64 3 2 34 5
70 6 64 2 66 1 66 -23z"/>
<path d="M815 2800 c8 -13 35 -13 55 0 11 7 5 10 -23 10 -23 0 -36 -4 -32 -10z"/>
<path d="M733 3008 c-13 -6 -23 -15 -23 -20 0 -5 9 -4 21 2 11 7 32 9 45 6 26
-7 33 8 8 18 -20 8 -24 7 -51 -6z"/>
<path d="M1815 3006 c-6 -7 -55 -30 -110 -51 -231 -88 -453 -216 -558 -323
-55 -56 -58 -61 -46 -83 7 -13 20 -48 29 -77 l16 -53 107 161 c106 158 107
160 174 194 86 42 238 100 326 122 65 16 67 18 67 47 0 24 3 28 12 19 7 -7 16
-12 21 -12 5 0 -1 8 -14 19 -20 16 -21 21 -10 35 7 9 9 16 5 16 -5 0 -14 -6
-19 -14z"/>
<path d="M1863 2990 c1 -11 7 -20 14 -20 7 0 13 9 13 20 0 11 -6 20 -14 20 -9
0 -14 -9 -13 -20z"/>
<path d="M1920 2993 c0 -6 -10 -19 -22 -27 -12 -9 -18 -16 -12 -16 6 0 19 9
29 20 10 12 24 19 31 16 7 -3 14 1 17 7 3 7 -5 12 -19 12 -13 0 -24 -5 -24
-12z"/>
<path d="M2052 2993 c6 -8 3 -18 -11 -32 -12 -12 -17 -21 -11 -21 5 0 17 11
26 25 10 15 26 25 40 25 12 0 25 4 29 10 3 5 -13 8 -39 7 -33 -1 -42 -5 -34
-14z"/>
<path d="M2004 2980 c0 -13 6 -20 16 -18 8 2 15 10 15 18 0 8 -7 16 -15 18
-10 2 -16 -5 -16 -18z"/>
<path d="M902 2963 c4 -24 23 -27 25 -3 1 12 -4 20 -13 20 -9 0 -14 -7 -12
-17z"/>
<path d="M755 2960 c-7 -11 2 -30 14 -30 5 0 11 9 14 20 5 21 -16 29 -28 10z"/>
<path d="M1906 2829 c6 -11 81 -12 87 -1 3 4 -17 8 -44 9 -27 0 -46 -3 -43 -8z"/>
<path d="M568 2633 c6 -2 18 -2 25 0 6 3 1 5 -13 5 -14 0 -19 -2 -12 -5z"/>
<path d="M945 2629 c-4 -6 -5 -12 -2 -15 2 -3 7 2 10 11 7 17 1 20 -8 4z"/>
<path d="M2002 2495 c0 -16 2 -22 5 -12 2 9 2 23 0 30 -3 6 -5 -1 -5 -18z"/>
<path d="M923 2475 c0 -22 2 -30 4 -17 2 12 2 30 0 40 -3 9 -5 -1 -4 -23z"/>
<path d="M2012 2420 c0 -19 2 -27 5 -17 2 9 2 25 0 35 -3 9 -5 1 -5 -18z"/>
<path d="M702 2400 c0 -14 2 -19 5 -12 2 6 2 18 0 25 -3 6 -5 1 -5 -13z"/>
<path d="M913 2310 c0 -47 2 -66 4 -42 2 23 2 61 0 85 -2 23 -4 4 -4 -43z"/>
<path d="M2023 2315 c0 -27 2 -38 4 -22 2 15 2 37 0 50 -2 12 -4 0 -4 -28z"/>
<path d="M722 2290 c0 -14 2 -19 5 -12 2 6 2 18 0 25 -3 6 -5 1 -5 -13z"/>
<path d="M732 2200 c0 -19 2 -27 5 -17 2 9 2 25 0 35 -3 9 -5 1 -5 -18z"/>
<path d="M1976 1975 c-9 -26 -7 -32 5 -12 6 10 9 21 6 23 -2 3 -7 -2 -11 -11z"/>
<path d="M481 1874 c0 -11 3 -14 6 -6 3 7 2 16 -1 19 -3 4 -6 -2 -5 -13z"/>
<path d="M471 1814 c0 -11 3 -14 6 -6 3 7 2 16 -1 19 -3 4 -6 -2 -5 -13z"/>
<path d="M1050 1775 c-3 -51 -10 -129 -15 -148 -3 -17 -2 -18 14 -3 20 18 27
103 12 151 l-9 30 -2 -30z"/>
</g>
</svg>
