<?xml version="1.0" standalone="no"?>
<!DOCTYPE svg PUBLIC "-//W3C//DTD SVG 20010904//EN"
 "http://www.w3.org/TR/2001/REC-SVG-20010904/DTD/svg10.dtd">
<svg version="1.0" xmlns="http://www.w3.org/2000/svg"
 width="2000.000000pt" height="1333.000000pt" viewBox="0 0 2000.000000 1333.000000"
 preserveAspectRatio="xMidYMid meet">

<g transform="translate(0.000000,1333.000000) scale(0.100000,-0.100000)"
fill="#000000" stroke="none">
<path d="M9105 11631 l20 -8 -20 -5 c-11 -2 -66 -2 -122 0 -99 5 -103 4 -103
-16 0 -16 -5 -19 -22 -14 -17 4 -20 2 -15 -12 4 -10 8 -32 8 -49 2 -30 2 -30
10 8 6 32 7 24 6 -40 -2 -139 1 -156 23 -162 11 -3 20 -9 20 -14 0 -12 37 -11
45 1 3 6 42 10 86 10 l81 0 -2 -32 c-1 -18 -2 -37 -1 -41 2 -15 39 12 44 33 4
15 0 20 -16 20 -11 0 -18 3 -14 6 11 11 148 14 142 4 -3 -6 -1 -10 5 -10 7 0
10 6 8 13 -4 9 -58 13 -209 17 l-204 5 225 8 c124 5 237 10 253 12 27 3 36 -8
17 -20 -5 -3 -10 -2 -10 3 0 5 -15 6 -32 3 l-33 -5 35 -6 c50 -9 63 -2 55 28
-7 30 -53 98 -88 131 -15 13 -24 31 -22 42 2 11 0 17 -6 14 -5 -4 -6 -11 -3
-17 4 -6 1 -9 -7 -6 -8 3 -13 14 -11 24 2 13 0 15 -6 6 -11 -17 -121 36 -119
58 1 8 -7 16 -18 17 l-20 3 20 -9z"/>
<path d="M9165 11625 l-30 -14 30 6 c26 5 28 4 18 -9 -11 -12 -8 -17 13 -27
30 -13 37 -10 39 19 1 15 -5 20 -22 20 -14 0 -21 4 -18 10 8 12 7 12 -30 -5z"/>
<path d="M8532 11620 c-35 -8 -54 -20 -31 -20 8 1 37 7 64 15 52 14 25 19 -33
5z"/>
<path d="M8594 11610 c-23 -5 -91 -28 -150 -52 -133 -53 -133 -53 -111 -35 16
13 16 15 2 21 -10 3 -14 2 -10 -5 4 -6 -2 -13 -13 -16 -11 -3 -18 -11 -16 -18
3 -7 -11 -22 -30 -33 -20 -12 -36 -17 -36 -12 0 5 9 14 20 20 11 6 20 16 20
22 0 6 -10 2 -23 -10 -13 -12 -28 -22 -34 -22 -6 0 -13 -7 -16 -14 -4 -11 -1
-13 10 -9 11 4 14 2 9 -5 -4 -7 -17 -12 -28 -12 -12 0 -19 -3 -15 -6 3 -4 -8
-16 -26 -28 -31 -21 -33 -29 -25 -81 3 -17 -2 -20 -32 -18 -19 0 -47 4 -62 8
-15 4 -36 4 -45 0 -16 -6 -15 -8 5 -16 13 -5 21 -12 18 -17 -2 -4 21 -5 52 -1
31 3 60 4 65 2 4 -2 7 1 7 7 0 6 4 9 9 6 5 -4 20 -2 33 3 22 9 22 10 -6 10
-16 1 -27 3 -25 6 3 2 99 9 215 14 115 6 255 13 311 16 89 5 102 4 97 -10 -6
-15 -34 -22 -34 -7 0 4 -39 4 -87 0 -107 -8 -130 -12 -140 -22 -5 -5 8 -6 27
-2 19 3 64 8 100 10 61 3 62 3 15 -4 -47 -7 -45 -8 23 -6 39 1 72 -2 72 -6 0
-4 -19 -8 -42 -8 -77 0 -118 -11 -118 -31 0 -9 7 -25 16 -33 14 -15 13 -16
-13 -17 l-28 -1 30 -7 c20 -4 26 -9 18 -14 -7 -5 -17 -6 -22 -2 -5 3 -12 1
-16 -5 -3 -5 3 -10 14 -10 12 0 20 -5 19 -11 -2 -6 3 -14 11 -17 10 -3 12 0 8
12 -7 17 8 23 17 7 8 -12 -21 -34 -34 -26 -5 3 -10 1 -10 -4 0 -17 30 -13 77
10 33 16 47 18 57 10 10 -8 16 -8 25 3 9 11 9 15 -1 20 -7 3 -1 4 15 1 20 -4
27 -1 27 10 0 13 -13 14 -85 9 -58 -5 -85 -4 -85 4 0 6 -3 17 -6 26 -5 14 5
16 74 16 45 0 83 4 86 8 3 5 -1 20 -9 35 -7 15 -10 29 -5 32 4 3 10 -2 14 -10
3 -8 11 -15 17 -15 7 0 5 8 -6 20 -16 18 -16 22 -3 38 8 9 16 35 17 57 2 40
16 145 27 198 l6 27 -99 -1 c-54 -1 -117 -5 -139 -9z"/>
<path d="M9290 11600 c0 -5 9 -10 21 -10 11 0 17 5 14 10 -3 6 -13 10 -21 10
-8 0 -14 -4 -14 -10z"/>
<path d="M8410 11570 c-19 -11 -30 -19 -23 -20 18 0 63 22 63 32 0 10 1 11
-40 -12z"/>
<path d="M9314 11528 c3 -13 6 -29 6 -37 0 -7 6 -11 14 -8 10 4 13 1 10 -7 -3
-8 -1 -17 5 -21 15 -9 14 16 -4 59 -17 40 -41 50 -31 14z"/>
<path d="M9360 11519 c0 -5 5 -7 10 -4 6 3 10 8 10 11 0 2 -4 4 -10 4 -5 0
-10 -5 -10 -11z"/>
<path d="M9424 11516 c-8 -21 -6 -23 58 -52 29 -13 44 -17 33 -9 -11 8 -34 29
-52 47 -28 27 -33 29 -39 14z"/>
<path d="M8833 11435 c0 -22 2 -30 4 -17 2 12 2 30 0 40 -3 9 -5 -1 -4 -23z"/>
<path d="M9411 11386 c-8 -10 -9 -16 -1 -21 5 -3 10 -1 10 4 0 6 7 11 15 11 8
0 15 5 15 10 0 15 -26 12 -39 -4z"/>
<path d="M8082 11381 c2 -7 7 -12 11 -12 12 1 9 15 -3 20 -7 2 -11 -2 -8 -8z"/>
<path d="M8063 11373 c4 -6 0 -16 -8 -21 -10 -5 -13 -15 -9 -25 8 -21 34 -22
34 -1 0 8 5 12 10 9 19 -12 10 12 -12 31 -12 10 -18 14 -15 7z"/>
<path d="M9430 11346 c0 -9 7 -12 20 -9 11 3 20 9 20 14 0 5 -9 9 -20 9 -11 0
-20 -6 -20 -14z"/>
<path d="M9390 11330 c-13 -8 -13 -10 2 -10 9 0 20 5 23 10 8 13 -5 13 -25 0z"/>
<path d="M7785 11310 c-25 -6 -27 -8 -12 -15 22 -9 89 3 82 16 -7 10 -26 10
-70 -1z"/>
<path d="M9336 11311 c-4 -6 -35 -11 -70 -11 -65 0 -110 -19 -91 -39 15 -15
160 -18 174 -4 13 14 14 33 2 52 -6 9 -11 10 -15 2z"/>
<path d="M8275 11299 c18 -5 33 -5 39 1 7 7 -4 10 -29 9 -40 -1 -40 -1 -10
-10z"/>
<path d="M7648 11293 c-10 -2 -18 -8 -18 -11 0 -4 -14 -7 -31 -8 -16 -1 -35
-6 -41 -12 -9 -9 -3 -9 20 -3 17 5 41 7 54 4 13 -3 20 -2 16 2 -4 4 0 14 10
21 18 14 17 14 -10 7z"/>
<path d="M7684 11285 c-18 -14 -18 -14 4 -8 12 3 22 9 22 14 0 12 -3 11 -26
-6z"/>
<path d="M8388 11293 c12 -2 30 -2 40 0 9 3 -1 5 -23 4 -22 0 -30 -2 -17 -4z"/>
<path d="M7724 11273 c10 -11 36 -12 36 -2 0 5 -10 9 -22 9 -12 0 -18 -3 -14
-7z"/>
<path d="M8350 11276 c0 -9 40 -13 46 -5 3 5 -6 9 -20 9 -14 0 -26 -2 -26 -4z"/>
<path d="M8500 11270 l-65 -7 68 -1 c39 -1 67 2 67 8 0 6 -1 9 -2 8 -2 -1 -32
-4 -68 -8z"/>
<path d="M9566 11265 c-3 -8 -1 -15 4 -15 6 0 10 7 10 15 0 8 -2 15 -4 15 -2
0 -6 -7 -10 -15z"/>
<path d="M8168 11259 c-8 -5 13 -9 51 -9 35 0 62 3 58 6 -9 10 -94 12 -109 3z"/>
<path d="M8785 11260 c3 -5 8 -10 11 -10 2 0 4 5 4 10 0 6 -5 10 -11 10 -5 0
-7 -4 -4 -10z"/>
<path d="M8910 11255 c0 -8 7 -15 15 -15 8 0 15 5 15 11 0 5 5 7 12 3 7 -4 8
-3 4 4 -10 17 -46 15 -46 -3z"/>
<path d="M9440 11249 c0 -5 5 -7 10 -4 6 3 10 8 10 11 0 2 -4 4 -10 4 -5 0
-10 -5 -10 -11z"/>
<path d="M7496 11237 c-16 -12 -16 -14 -2 -26 9 -8 19 -11 23 -8 3 4 -2 9 -11
13 -15 6 -15 7 1 20 23 17 13 18 -11 1z"/>
<path d="M8560 11225 c0 -8 4 -15 10 -15 5 0 7 7 4 15 -4 8 -8 15 -10 15 -2 0
-4 -7 -4 -15z"/>
<path d="M8776 11225 c-19 -14 -19 -15 7 -15 19 0 25 4 21 15 -4 8 -7 15 -8
15 0 0 -10 -7 -20 -15z"/>
<path d="M8700 11210 c36 -11 52 -11 45 0 -3 6 -21 10 -38 9 -31 -1 -31 -1 -7
-9z"/>
<path d="M9637 11186 c-4 -10 4 -15 24 -18 29 -4 29 -4 9 14 -23 22 -26 22
-33 4z"/>
<path d="M7472 11145 c-36 -51 -44 -73 -10 -29 12 16 23 31 25 34 2 2 8 -1 12
-9 5 -8 8 -1 7 18 -1 17 -1 31 -2 31 0 0 -15 -20 -32 -45z"/>
<path d="M9217 11140 c-9 -11 -13 -20 -8 -20 11 0 35 29 29 35 -2 2 -12 -4
-21 -15z"/>
<path d="M9304 11131 c0 -11 4 -17 9 -14 4 2 16 -1 25 -8 9 -8 6 -1 -7 14 -14
15 -25 27 -26 27 0 0 -1 -9 -1 -19z"/>
<path d="M9455 11140 c-3 -5 -1 -10 4 -10 6 0 11 5 11 10 0 6 -2 10 -4 10 -3
0 -8 -4 -11 -10z"/>
<path d="M9687 11143 c-4 -3 -7 -11 -7 -17 0 -6 5 -5 12 2 6 6 9 14 7 17 -3 3
-9 2 -12 -2z"/>
<path d="M9714 11121 c13 -20 41 -30 57 -20 12 8 12 9 -1 7 -8 -1 -26 4 -39
11 -14 8 -21 8 -17 2z"/>
<path d="M7476 11104 c-3 -9 -2 -12 5 -9 5 4 16 1 24 -5 19 -16 19 -3 1 16
-18 18 -22 18 -30 -2z"/>
<path d="M7370 11091 c0 -6 4 -13 10 -16 6 -3 7 1 4 9 -7 18 -14 21 -14 7z"/>
<path d="M7670 11090 c0 -5 6 -10 13 -10 8 0 7 -4 -3 -10 -8 -5 -10 -10 -5
-10 6 0 16 4 24 9 11 7 9 11 -8 20 -14 8 -21 8 -21 1z"/>
<path d="M7748 11081 c-42 -14 -88 -51 -99 -80 -13 -33 -41 -132 -42 -148 0
-7 -24 -15 -56 -18 -76 -8 -92 -12 -54 -14 17 0 35 -6 39 -13 5 -8 -9 -9 -52
-4 -153 17 -145 17 -89 1 55 -16 172 -20 194 -6 7 5 10 14 7 20 -4 6 -2 11 3
11 6 0 11 -6 11 -14 0 -8 8 -17 18 -21 11 -3 24 -22 31 -45 25 -85 138 -151
231 -135 65 11 125 56 145 109 12 32 23 46 36 46 23 0 24 22 4 108 -18 75 -38
116 -71 147 -14 13 -21 26 -15 29 5 3 21 -8 35 -25 15 -17 30 -29 33 -25 4 3
-5 19 -19 34 -14 15 -24 32 -22 37 2 6 -16 10 -41 11 -27 0 -41 -3 -33 -7 7
-5 22 -6 33 -2 17 5 18 4 7 -10 -12 -14 -16 -13 -45 1 -36 18 -148 26 -189 13z
m173 -164 c62 -42 78 -116 36 -178 -68 -101 -227 -53 -227 68 0 54 23 97 64
117 44 22 88 19 127 -7z"/>
<path d="M7827 10913 c-4 -3 -7 -12 -7 -19 0 -14 79 -24 87 -10 14 21 -61 49
-80 29z"/>
<path d="M7754 10846 c-3 -13 -4 -32 -2 -42 5 -29 25 -27 30 3 3 15 7 34 9 42
2 8 -4 17 -13 19 -12 2 -19 -5 -24 -22z"/>
<path d="M7929 10838 c0 -2 -2 -16 -4 -31 -2 -16 -9 -34 -14 -41 -17 -20 0
-28 21 -9 19 17 25 68 8 78 -5 3 -10 5 -11 3z"/>
<path d="M7785 10750 c-8 -12 40 -43 61 -38 28 5 29 28 0 28 -13 0 -28 5 -31
10 -8 13 -22 13 -30 0z"/>
<path d="M9133 11073 c-3 -10 -8 -21 -10 -25 -2 -5 0 -8 6 -8 16 0 33 38 21
45 -6 3 -13 -2 -17 -12z"/>
<path d="M9430 11079 c-47 -13 -110 -41 -110 -48 0 -3 -12 -19 -26 -34 -32
-35 -62 -117 -67 -185 l-4 -52 33 0 c23 0 34 -5 34 -15 0 -29 83 -102 130
-115 115 -31 241 33 256 132 5 28 11 38 25 38 14 0 19 8 20 28 3 45 -3 96 -12
113 -4 9 -4 20 1 25 6 6 5 15 0 24 -8 13 -10 12 -10 -3 0 -13 -7 -9 -30 17
-56 63 -163 97 -240 75z m128 -164 c64 -54 64 -136 1 -189 -95 -80 -239 32
-185 145 33 70 127 92 184 44z"/>
<path d="M9455 10909 c-9 -14 -7 -15 37 -22 39 -6 61 8 37 24 -19 12 -66 11
-74 -2z"/>
<path d="M9392 10859 c-11 -29 -3 -69 13 -69 7 0 13 10 13 23 1 12 3 31 4 41
4 27 -21 32 -30 5z"/>
<path d="M9550 10819 c0 -11 -5 -29 -10 -40 -8 -15 -7 -19 4 -19 9 0 20 9 26
19 15 29 12 61 -5 61 -8 0 -15 -9 -15 -21z"/>
<path d="M9421 10755 c5 -24 57 -39 77 -22 12 10 10 13 -14 18 -16 4 -37 10
-48 14 -14 6 -17 4 -15 -10z"/>
<path d="M9620 11070 c17 -13 27 -15 32 -7 8 14 -9 27 -37 27 -18 0 -18 -2 5
-20z"/>
<path d="M7410 11076 c0 -2 7 -7 16 -10 8 -3 12 -2 9 4 -6 10 -25 14 -25 6z"/>
<path d="M7455 11068 c4 -10 17 -19 29 -19 16 -1 14 -3 -9 -9 -30 -8 -30 -8 8
-9 27 -1 37 3 37 14 0 9 -9 15 -23 15 -13 0 -29 6 -36 13 -10 10 -11 9 -6 -5z"/>
<path d="M9345 11070 c-3 -6 1 -7 9 -4 18 7 21 14 7 14 -6 0 -13 -4 -16 -10z"/>
<path d="M7330 11005 c0 -14 4 -25 9 -25 4 0 6 11 3 25 -2 14 -6 25 -8 25 -2
0 -4 -11 -4 -25z"/>
<path d="M7600 10970 c0 -22 3 -40 8 -40 4 0 6 18 4 40 -2 22 -6 40 -8 40 -2
0 -4 -18 -4 -40z"/>
<path d="M9240 10992 c6 -13 14 -21 18 -18 3 4 -2 14 -12 24 -18 16 -18 16 -6
-6z"/>
<path d="M7621 10974 c0 -11 3 -14 6 -6 3 7 2 16 -1 19 -3 4 -6 -2 -5 -13z"/>
<path d="M8060 10965 c0 -8 2 -15 4 -15 2 0 6 7 10 15 3 8 1 15 -4 15 -6 0
-10 -7 -10 -15z"/>
<path d="M9750 10962 c0 -26 -20 -40 -21 -15 0 10 -3 13 -6 6 -2 -7 2 -22 10
-33 14 -20 15 -20 21 16 4 20 5 39 2 42 -3 3 -6 -4 -6 -16z"/>
<path d="M7334 10933 c2 -21 4 -48 5 -60 2 -31 21 -29 21 2 0 14 -5 25 -11 25
-7 0 -8 11 -4 29 3 16 2 32 -4 35 -6 4 -9 -7 -7 -31z"/>
<path d="M7386 10961 c-4 -6 -9 -32 -13 -58 l-5 -48 46 -11 c26 -6 49 -7 52
-2 3 4 -1 8 -9 8 -9 0 -12 9 -9 29 4 31 32 38 44 11 5 -11 7 -9 7 7 1 16 -4
22 -16 21 -41 -3 -52 2 -48 22 2 11 0 20 -5 20 -4 0 -15 3 -23 6 -8 3 -18 1
-21 -5z"/>
<path d="M7495 10940 c-3 -5 1 -10 9 -10 9 0 16 5 16 10 0 6 -4 10 -9 10 -6 0
-13 -4 -16 -10z"/>
<path d="M8985 10904 c-38 -35 -27 -39 13 -3 18 16 28 29 24 29 -5 0 -21 -11
-37 -26z"/>
<path d="M9130 10880 c0 -5 9 -14 21 -20 19 -11 20 -10 9 9 -11 22 -30 29 -30
11z"/>
<path d="M9752 10870 c0 -14 2 -19 5 -12 2 6 2 18 0 25 -3 6 -5 1 -5 -13z"/>
<path d="M8995 10810 c-10 -11 -14 -20 -8 -20 5 0 18 9 28 20 10 11 14 20 8
20 -5 0 -18 -9 -28 -20z"/>
<path d="M9178 10783 c7 -3 16 -2 19 1 4 3 -2 6 -13 5 -11 0 -14 -3 -6 -6z"/>
<path d="M7548 10037 c-95 -29 -177 -82 -203 -131 -19 -35 -35 -47 -35 -26 0
6 -7 10 -16 10 -13 0 -15 -7 -11 -35 5 -30 3 -35 -14 -35 -21 0 -26 -15 -8
-25 6 -4 7 -19 4 -36 -5 -21 -2 -31 9 -35 9 -3 16 -15 16 -25 0 -35 28 -87 69
-128 50 -50 65 -52 45 -5 -26 63 23 90 64 34 33 -44 63 -38 66 14 2 36 40 32
57 -5 7 -18 26 -42 41 -52 24 -18 32 -19 67 -8 61 18 74 36 67 92 -4 26 -3 50
1 52 5 3 27 -12 51 -34 50 -44 52 -71 7 -80 -28 -6 -28 -7 -4 -8 46 -2 64 36
32 71 -17 19 -16 19 11 12 41 -10 76 12 76 48 0 42 -27 88 -51 88 -31 0 -77
-27 -84 -50 -8 -24 -21 -26 -29 -4 -9 23 -9 22 32 44 35 20 36 21 7 15 -42 -9
-57 -24 -53 -54 4 -43 -10 -54 -39 -31 -45 36 -102 22 -118 -29 -3 -11 -19
-22 -36 -26 -34 -8 -36 -7 -41 19 -2 15 16 30 82 68 104 60 127 81 142 130 6
21 14 38 18 38 17 0 63 -46 76 -74 13 -30 13 -30 14 -5 0 38 -29 130 -53 163
-43 61 -144 77 -259 43z m361 -270 c20 -25 24 -72 7 -86 -28 -23 -83 -21 -107
5 -13 13 -19 24 -14 24 4 0 14 -8 21 -17 9 -13 13 -14 14 -5 0 8 10 23 23 33
22 20 22 20 0 10 -29 -14 -33 -14 -33 4 0 14 44 44 66 45 6 0 17 -6 23 -13z
m-244 -62 c-50 -18 -55 -18 -31 0 11 8 31 15 45 15 22 -1 19 -3 -14 -15z m78
-40 c23 -48 22 -60 -9 -84 -54 -42 -134 -12 -134 51 0 22 8 32 38 47 58 31 85
27 105 -14z"/>
<path d="M7660 9659 c-28 -15 -31 -19 -14 -19 12 0 32 9 45 20 30 24 15 24
-31 -1z"/>
<path d="M7918 9440 c-50 -44 -91 -110 -69 -110 5 0 12 11 15 24 3 13 31 47
62 75 31 29 55 54 52 56 -2 3 -29 -18 -60 -45z"/>
<path d="M7620 9347 c0 -22 43 -98 65 -115 38 -30 69 -30 61 1 -3 12 -6 36 -6
53 0 29 -4 33 -44 43 -24 6 -51 13 -60 17 -9 3 -16 4 -16 1z"/>
<path d="M8057 9203 c-4 -3 -7 -20 -7 -37 0 -44 -23 -73 -66 -80 -52 -10 -92
1 -96 27 -2 16 -17 26 -61 40 -32 11 -60 17 -64 13 -4 -3 6 -20 22 -36 27 -28
27 -31 12 -48 -16 -17 -13 -39 48 -347 35 -181 62 -331 60 -334 -3 -2 -15 5
-28 16 -12 11 -84 73 -159 137 -113 96 -139 124 -147 154 -38 144 -64 281 -69
360 -3 58 -9 92 -16 92 -6 0 -4 5 4 11 12 8 9 9 -10 4 -46 -12 -80 -27 -80
-37 0 -5 -6 -6 -12 -2 -9 5 -9 2 1 -9 17 -21 30 -21 51 -2 10 9 25 13 34 9 18
-7 22 -24 5 -24 -6 0 -26 -17 -44 -37 l-33 -38 -30 32 c-17 17 -28 34 -25 37
4 3 2 6 -3 6 -17 0 -34 -23 -34 -46 0 -13 -6 -26 -12 -31 -8 -5 6 -10 36 -13
l49 -5 -26 -25 c-18 -17 -38 -25 -64 -26 -66 -3 -71 -4 -77 -21 -4 -9 2 -25
14 -38 l20 -21 -23 -22 -23 -22 -23 31 c-21 28 -25 30 -33 15 -5 -9 -17 -63
-26 -119 -14 -88 -16 -180 -14 -657 1 -315 -2 -607 -8 -675 -10 -113 -64 -548
-76 -607 -5 -25 -3 -28 22 -28 25 0 26 -2 20 -37 -17 -103 -19 -143 -6 -143
15 0 523 102 628 126 l74 17 -7 161 c-3 88 -13 294 -21 456 -7 162 -14 301
-14 308 0 9 14 4 43 -13 80 -46 155 -66 250 -67 l88 0 -1 -111 c-1 -62 -1
-251 0 -422 l1 -310 117 -70 c156 -93 281 -165 286 -165 3 0 7 26 11 58 12
118 14 122 41 122 l25 0 -2 213 -2 214 43 39 c151 136 313 457 361 714 14 78
15 253 1 295 -7 22 -11 24 -11 10 -1 -11 -21 -40 -46 -64 -49 -48 -55 -67 -27
-87 16 -12 16 -14 -6 -36 l-22 -23 -62 63 -61 62 75 0 c78 0 94 5 78 25 -7 9
-6 16 5 25 18 15 20 50 2 50 -7 0 -26 -13 -42 -30 -27 -28 -54 -38 -67 -24 -4
3 12 22 35 42 23 20 47 43 53 51 7 10 21 12 42 8 18 -4 32 -4 32 -1 0 20 -89
171 -138 234 -94 122 -308 298 -510 420 -83 50 -70 30 -142 233 l-24 67 -41 0
c-23 0 -45 -3 -48 -7z m391 -950 c27 -49 52 -95 54 -103 5 -15 -35 -177 -46
-187 -7 -8 -11 6 -35 122 -20 102 -37 255 -28 255 2 0 27 -39 55 -87z m365
-120 c-7 -2 -21 -2 -30 0 -10 3 -4 5 12 5 17 0 24 -2 18 -5z m-77 -71 c-22 -5
-30 3 -21 18 5 8 11 7 22 -2 15 -12 14 -13 -1 -16z m-26 -12 c13 -8 13 -10 -2
-10 -9 0 -20 5 -23 10 -8 13 5 13 25 0z m-7 -30 c20 -16 30 -18 52 -10 14 5
23 14 20 20 -3 5 -1 10 4 10 6 0 11 -9 11 -20 0 -11 -4 -20 -9 -20 -14 0 -23
-32 -11 -44 6 -6 17 -3 33 12 18 17 26 19 35 10 9 -9 3 -22 -30 -55 l-41 -42
-63 61 c-53 53 -60 64 -51 80 15 23 19 23 50 -2z m-68 -51 c4 -5 0 -18 -9 -28
-31 -34 -13 -57 19 -25 22 23 49 11 35 -16 -6 -11 -15 -20 -20 -20 -16 0 -11
-20 5 -27 9 -3 25 3 36 13 15 13 22 15 31 6 10 -10 3 -22 -30 -55 l-43 -42
-60 63 -61 64 38 39 c40 41 49 45 59 28z m-73 -132 c5 -6 6 -27 3 -44 -6 -33
-6 -33 36 -33 l43 0 -28 -29 c-24 -25 -35 -29 -70 -27 -37 3 -41 6 -44 31 -2
15 2 31 9 35 6 5 9 15 6 25 -4 9 -11 14 -16 11 -10 -7 -23 33 -14 47 7 12 65
0 75 -16z m-92 -36 c0 -11 -14 -33 -31 -49 -27 -25 -29 -30 -15 -42 14 -11 20
-10 36 5 18 16 20 16 26 1 3 -9 1 -23 -6 -31 -10 -13 -10 -19 4 -33 20 -23 20
-36 0 -52 -13 -11 -24 -5 -75 46 -32 32 -58 62 -57 66 6 14 100 108 109 108 5
0 9 -9 9 -19z m-143 -159 c-18 -19 -23 -42 -9 -42 4 0 18 7 31 16 33 24 50 3
22 -27 l-21 -23 25 -26 c24 -26 25 -27 7 -43 -17 -16 -22 -13 -81 47 l-62 63
42 37 c29 27 44 35 52 27 7 -7 6 -16 -6 -29z"/>
<path d="M7201 8967 c-13 -21 -12 -21 5 -5 10 10 16 20 13 22 -3 3 -11 -5 -18
-17z"/>
<path d="M11250 8391 c-72 -23 -181 -113 -262 -214 -44 -56 -49 -101 -22 -202
21 -82 44 -120 75 -121 13 -1 60 -27 104 -59 131 -94 155 -96 155 -13 0 42 -5
57 -25 78 -66 69 -19 155 53 95 45 -37 56 -33 50 20 -4 31 -1 48 8 56 21 17
18 24 -33 73 -53 50 -53 59 3 102 40 31 63 18 33 -20 -30 -38 -11 -57 24 -22
21 21 26 23 31 9 4 -9 0 -26 -9 -39 -17 -27 -19 -34 -6 -34 15 0 55 94 42 98
-7 2 -23 15 -36 30 l-23 25 21 29 c11 15 25 28 30 28 17 0 -14 28 -58 55 -48
27 -115 39 -155 26z"/>
<path d="M11478 8273 c5 -21 7 -23 10 -9 2 10 0 22 -6 28 -6 6 -7 0 -4 -19z"/>
<path d="M11477 8062 c-19 -21 -23 -37 -6 -26 6 3 15 1 19 -6 13 -20 40 -3 40
25 0 30 -29 34 -53 7z"/>
<path d="M12225 7756 c24 -25 47 -56 51 -70 3 -14 10 -26 16 -26 24 0 -24 84
-69 120 -45 35 -44 22 2 -24z"/>
<path d="M1175 7555 c-47 -46 -17 -115 50 -115 60 0 88 77 43 120 -29 27 -64
25 -93 -5z"/>
<path d="M11453 7486 c-41 -62 -77 -104 -105 -124 -107 -72 -198 -69 -239 9
-15 28 -18 30 -19 13 -1 -54 78 -102 148 -89 89 17 155 69 226 179 70 109 68
106 59 106 -5 0 -37 -42 -70 -94z"/>
<path d="M11070 7508 c0 -5 22 -8 48 -8 27 0 85 -2 128 -5 51 -4 72 -2 59 4
-25 11 -235 19 -235 9z"/>
<path d="M11660 7326 l-55 -11 85 -47 c47 -26 86 -43 88 -38 4 11 -46 110 -56
109 -4 -1 -32 -6 -62 -13z"/>
<path d="M7997 7260 c-7 -33 -87 -755 -87 -779 0 -6 -15 -11 -32 -11 -48 0
-108 -12 -103 -19 2 -4 39 -4 82 0 43 4 150 12 238 19 88 7 176 16 195 20 l35
8 -40 1 c-38 1 -214 -13 -316 -24 l-45 -5 7 62 c30 249 79 734 76 747 -2 9 -7
0 -10 -19z"/>
<path d="M11060 7191 c0 -46 -32 -385 -45 -486 -18 -130 -18 -132 -6 -119 11
10 47 317 56 474 4 58 8 115 11 128 2 12 0 22 -6 22 -5 0 -10 -9 -10 -19z"/>
<path d="M7815 6404 c-104 -8 -208 -18 -230 -23 l-40 -9 35 -1 c19 0 116 6
215 14 99 8 233 15 298 15 71 0 117 4 117 10 0 13 -158 11 -395 -6z"/>
<path d="M11000 6123 c0 -2 33 -20 73 -38 155 -72 327 -101 546 -92 79 3 147
9 152 14 4 4 12 28 18 52 l9 43 -26 -6 c-120 -26 -269 -46 -347 -46 -107 0
-299 30 -374 59 -28 10 -51 17 -51 14z"/>
<path d="M11150 5941 c0 -6 15 -11 34 -11 18 0 47 -3 63 -6 29 -6 29 -6 26
-72 -7 -136 -52 -482 -79 -602 -4 -17 -2 -22 4 -15 19 19 91 515 92 628 l0 59
63 -6 c34 -4 87 -9 117 -13 35 -3 51 -2 45 4 -5 5 -71 15 -145 22 -74 6 -154
14 -177 18 -28 3 -43 1 -43 -6z"/>
<path d="M10784 5211 c3 -4 24 -11 46 -15 61 -10 148 -45 178 -73 l27 -24 -46
4 c-25 2 -71 16 -102 30 -31 14 -59 22 -61 18 -3 -4 9 -23 25 -42 26 -28 28
-29 15 -7 -22 38 -21 38 26 15 22 -11 66 -23 96 -25 48 -4 54 -3 50 14 -5 27
-62 61 -150 89 -83 26 -113 31 -104 16z"/>
<path d="M7144 4942 c-269 -188 -316 -223 -310 -229 4 -4 491 331 520 358 5 5
8 11 5 13 -3 3 -99 -61 -215 -142z"/>
<path d="M8115 4938 c-67 -38 -280 -216 -271 -225 3 -3 40 26 83 64 43 38 100
85 128 104 74 51 111 86 60 57z"/>
<path d="M10217 4659 c-3 -12 -3 -35 0 -51 4 -20 1 -33 -8 -39 -10 -6 -5 -9
17 -9 19 0 39 -9 54 -25 l23 -24 -13 -171 c-12 -153 -11 -173 2 -187 14 -14
16 -13 21 3 9 32 26 127 33 187 5 47 9 57 22 52 9 -3 35 -9 59 -12 33 -4 44
-2 49 10 6 18 -47 156 -78 199 -50 71 -169 115 -181 67z m141 -47 c18 -12 62
-74 62 -89 0 -7 -14 -29 -32 -48 -35 -40 -41 -37 -52 28 -4 21 -16 47 -27 58
-20 20 -20 20 3 39 26 22 28 23 46 12z"/>
<path d="M11233 3839 c-14 -5 -21 -14 -17 -23 3 -8 0 -24 -6 -36 l-11 -21 -55
30 c-35 20 -68 31 -94 31 -39 0 -41 -1 -65 -56 -41 -92 -45 -89 108 -89 143 0
140 -1 205 59 31 29 40 58 24 84 -12 18 -64 31 -89 21z"/>
<path d="M6702 3120 c-15 -21 -32 -39 -38 -40 -5 0 -36 16 -69 35 -41 25 -68
35 -94 34 -77 -4 -423 -202 -471 -269 -22 -30 -22 -35 -9 -59 8 -14 28 -32 44
-40 38 -18 185 -19 280 -1 94 17 253 78 266 101 12 23 34 26 25 4 -8 -21 16
-19 84 6 53 19 58 24 64 57 17 105 -3 212 -39 212 -9 0 -28 -18 -43 -40z"/>
<path d="M7499 3133 c-16 -31 -17 -179 -1 -209 6 -11 38 -28 76 -41 l66 -21 0
21 0 20 23 -21 c25 -24 124 -67 202 -88 137 -38 333 -37 376 2 65 59 -23 143
-305 290 -146 76 -181 81 -248 35 -69 -47 -80 -47 -117 -1 -38 47 -52 50 -72
13z"/>
<path d="M10615 2115 c-5 -2 -43 -9 -84 -15 -120 -20 -111 18 -111 -468 0
-495 -8 -462 106 -462 75 0 76 0 87 30 13 34 19 36 38 14 50 -60 202 -82 304
-43 186 70 266 309 168 502 -68 134 -222 202 -372 163 -34 -9 -65 -16 -67 -16
-2 0 -4 60 -4 134 0 128 -1 136 -22 150 -23 16 -26 17 -43 11z m243 -512 c27
-17 52 -70 52 -109 0 -40 -30 -93 -61 -109 -115 -60 -227 80 -153 193 32 49
106 61 162 25z"/>
<path d="M13068 2056 c-84 -18 -88 -24 -88 -127 l0 -89 -40 0 c-60 0 -90 -33
-90 -100 0 -66 23 -90 85 -90 l45 0 0 -157 c0 -172 9 -208 64 -266 84 -87 274
-104 381 -34 19 12 36 29 38 37 4 19 -41 129 -63 153 -16 18 -19 18 -48 3 -39
-20 -76 -20 -96 0 -13 12 -16 40 -16 140 l0 124 74 0 c68 0 76 2 95 26 16 20
20 37 17 76 -4 71 -26 88 -117 88 l-69 0 0 88 c0 115 -11 136 -70 139 -25 1
-70 -4 -102 -11z"/>
<path d="M4367 2012 c-15 -17 -17 -60 -17 -413 0 -307 3 -399 13 -413 12 -16
33 -17 272 -14 296 4 330 11 427 92 184 152 199 472 30 641 -103 103 -187 125
-488 125 -201 0 -222 -2 -237 -18z m428 -203 c60 -17 95 -46 121 -103 41 -87
28 -202 -29 -264 -43 -47 -89 -62 -187 -62 l-90 0 0 213 c0 118 3 217 7 220
10 11 134 8 178 -4z"/>
<path d="M5646 1835 c-21 -7 -56 -31 -77 -51 l-39 -38 0 27 c0 47 -31 67 -104
67 -111 0 -106 17 -107 -338 0 -219 3 -308 12 -318 8 -10 38 -14 119 -14 105
0 107 0 118 25 8 17 12 89 12 199 0 169 1 174 24 199 33 35 67 42 133 27 70
-15 75 -10 104 97 26 96 22 105 -46 122 -57 14 -101 13 -149 -4z"/>
<path d="M6130 1834 c-110 -30 -201 -113 -235 -215 -24 -72 -18 -208 13 -270
36 -74 87 -125 160 -161 64 -32 71 -33 187 -33 102 1 128 4 175 24 77 32 120
66 120 96 0 27 -60 100 -89 110 -10 3 -43 -8 -76 -25 -66 -35 -127 -39 -181
-14 -40 19 -74 58 -74 85 0 16 16 18 222 19 163 0 224 4 230 13 15 23 8 116
-12 171 -62 164 -251 251 -440 200z m159 -178 c22 -12 51 -52 51 -71 0 -3 -47
-5 -105 -5 -119 0 -129 8 -76 61 33 33 83 39 130 15z"/>
<path d="M6882 1835 c-90 -20 -151 -51 -158 -82 -8 -31 22 -100 52 -120 19
-12 27 -12 61 2 121 51 233 31 233 -43 0 -22 -2 -23 -47 -15 -167 28 -298 -20
-355 -131 -16 -31 -19 -53 -16 -102 5 -77 39 -126 114 -164 41 -21 63 -25 140
-25 82 0 96 3 152 32 34 17 62 28 62 23 0 -26 34 -40 100 -40 104 0 105 0 97
255 -3 113 -11 222 -18 244 -25 84 -105 146 -217 170 -67 14 -121 13 -200 -4z
m172 -405 c21 -8 26 -16 26 -44 0 -62 -69 -99 -138 -75 -56 19 -67 65 -27 104
26 27 90 34 139 15z"/>
<path d="M7798 1839 c-21 -6 -58 -29 -83 -51 -40 -35 -45 -37 -45 -18 0 11
-12 32 -26 47 -23 23 -31 25 -90 21 -40 -2 -70 -10 -80 -20 -13 -13 -16 -60
-20 -304 -3 -223 -1 -295 9 -314 12 -24 17 -25 117 -28 145 -4 140 -12 140
220 0 99 4 187 10 197 15 30 65 46 99 32 45 -19 51 -46 51 -240 0 -126 4 -182
13 -194 10 -13 32 -17 115 -18 66 -1 107 3 116 10 11 10 15 54 18 207 l3 196
28 24 c36 30 68 30 104 0 l28 -24 3 -194 c2 -114 8 -198 14 -205 7 -9 43 -13
114 -13 82 0 106 3 119 17 15 14 16 42 13 237 -4 250 -11 278 -84 348 -93 89
-253 101 -364 28 -41 -27 -46 -28 -65 -14 -69 51 -181 74 -257 53z"/>
<path d="M8855 1830 c-103 -33 -155 -101 -155 -202 0 -100 61 -157 221 -210
93 -30 117 -47 103 -70 -13 -21 -120 -2 -182 32 -42 23 -66 31 -83 26 -23 -6
-81 -72 -95 -109 -10 -27 62 -89 137 -118 55 -21 81 -24 184 -24 111 0 124 2
172 27 52 28 95 74 108 116 4 13 7 46 7 73 -1 106 -74 174 -239 225 -90 27
-106 40 -77 61 24 18 78 9 149 -23 35 -16 59 -22 72 -17 22 9 62 54 82 91 25
47 -29 93 -145 122 -96 25 -181 25 -259 0z"/>
<path d="M9842 1835 c-91 -20 -146 -53 -150 -89 -5 -37 15 -82 45 -106 24 -18
25 -18 81 1 71 25 154 27 187 5 23 -15 44 -61 32 -72 -2 -3 -34 0 -70 6 -192
34 -349 -65 -351 -219 -2 -121 88 -200 235 -209 84 -5 133 6 192 45 22 13 40
23 40 21 21 -41 24 -43 100 -46 68 -3 77 -1 87 18 8 15 10 92 8 243 -3 212 -4
224 -27 270 -29 55 -73 92 -143 119 -67 25 -187 31 -266 13z m177 -406 c24 -9
31 -17 31 -38 0 -76 -112 -118 -172 -64 -24 21 -23 68 2 93 23 23 87 27 139 9z"/>
<path d="M11520 1839 c-106 -21 -208 -101 -253 -197 -33 -73 -31 -217 4 -292
64 -136 195 -207 368 -198 150 7 268 83 323 205 33 74 32 209 -3 283 -35 76
-77 121 -146 157 -93 49 -188 63 -293 42z m160 -238 c34 -24 50 -58 49 -106 0
-95 -88 -152 -169 -110 -75 39 -81 175 -11 220 44 28 89 27 131 -4z"/>
<path d="M14030 1835 c-111 -31 -212 -126 -242 -228 -7 -23 -12 -76 -12 -117
1 -135 76 -251 197 -305 80 -37 197 -45 279 -21 69 20 150 74 162 110 9 24 5
32 -45 82 -78 80 -82 81 -136 45 -64 -43 -111 -42 -159 2 -67 61 -52 171 28
210 45 22 81 17 134 -19 24 -17 45 -23 59 -20 29 7 125 112 125 136 0 25 -64
78 -128 107 -71 31 -186 39 -262 18z"/>
<path d="M14704 1836 c-75 -17 -140 -49 -154 -76 -8 -15 -6 -31 11 -70 29 -68
43 -74 115 -49 109 38 205 23 220 -36 10 -38 -1 -43 -67 -27 -112 28 -246 -9
-308 -85 -67 -82 -63 -201 10 -274 77 -77 238 -92 349 -33 30 16 58 30 63 32
4 2 7 -3 7 -11 0 -29 29 -40 98 -38 49 1 70 6 80 18 9 12 12 74 12 225 0 185
-2 213 -21 262 -24 66 -87 126 -157 151 -65 23 -184 28 -258 11z m184 -407
c43 -16 21 -92 -34 -115 -57 -24 -111 -11 -131 31 -15 31 -15 36 0 59 27 41
93 51 165 25z"/>
<path d="M15615 1839 c-17 -5 -49 -24 -72 -44 -23 -19 -44 -35 -47 -35 -3 0
-6 11 -6 24 0 38 -35 56 -107 56 -107 0 -103 13 -103 -336 0 -184 4 -303 10
-315 10 -17 22 -19 120 -19 76 0 111 4 117 13 4 6 10 96 13 199 5 180 6 187
29 212 31 33 80 42 138 25 43 -12 47 -11 62 8 10 11 25 54 36 96 22 89 17 99
-50 116 -51 13 -97 13 -140 0z"/>
<path d="M12109 1819 c-20 -20 -20 -29 -17 -252 l3 -232 30 -53 c48 -88 131
-132 245 -132 63 0 123 25 159 64 30 32 41 33 41 3 0 -13 5 -28 12 -35 16 -16
160 -16 176 0 9 9 12 94 12 319 0 365 10 339 -132 339 -131 0 -128 6 -128
-230 0 -189 0 -191 -25 -215 -13 -14 -35 -25 -49 -25 -77 0 -86 28 -86 254 0
224 5 216 -132 216 -76 0 -91 -3 -109 -21z"/>
<path d="M1170 1619 c0 -88 1 -90 23 -87 17 2 23 11 27 38 l6 35 23 -37 c16
-27 30 -38 47 -38 29 0 29 3 7 41 -16 26 -16 29 0 47 44 48 7 92 -76 92 l-57
0 0 -91z m95 31 c0 -8 -10 -16 -22 -18 -18 -3 -23 2 -23 18 0 16 5 21 23 18
12 -2 22 -10 22 -18z"/>
<path d="M1350 1620 l0 -91 68 3 c52 2 67 6 67 18 0 10 -13 16 -42 18 -50 4
-63 32 -15 32 34 0 43 7 35 26 -3 8 -18 14 -34 14 -19 0 -29 5 -29 15 0 11 11
15 40 15 33 0 40 3 40 20 0 18 -7 20 -65 20 l-65 0 0 -90z"/>
<path d="M1539 1626 c-21 -46 -39 -87 -39 -90 0 -13 48 -5 54 9 3 9 19 15 41
15 22 0 38 -6 41 -15 6 -14 54 -22 54 -10 0 3 -18 44 -40 90 -25 55 -45 85
-55 85 -11 0 -30 -30 -56 -84z m71 -23 c0 -7 -7 -13 -15 -13 -16 0 -19 9 -9
35 5 13 8 14 15 3 5 -7 9 -19 9 -25z"/>
<path d="M1710 1620 l0 -90 63 0 c82 1 117 30 117 97 -1 55 -42 83 -124 83
l-56 0 0 -90z m111 40 c22 -12 26 -59 7 -78 -7 -7 -25 -12 -40 -12 -27 0 -28
2 -28 50 0 44 3 50 21 50 11 0 29 -5 40 -10z"/>
<path d="M1995 1698 c-5 -17 -25 -141 -25 -156 0 -7 11 -12 25 -12 22 0 25 4
25 35 0 19 4 35 9 35 5 0 15 -16 21 -35 16 -49 42 -46 65 8 l19 42 4 -42 c3
-38 6 -43 28 -43 22 0 24 3 18 38 -3 20 -8 59 -12 87 -10 72 -33 72 -63 1 -12
-31 -26 -56 -30 -56 -4 0 -17 25 -29 55 -21 52 -46 71 -55 43z"/>
<path d="M2235 1685 c-29 -28 -34 -88 -10 -122 22 -32 80 -46 119 -29 44 18
61 43 61 88 0 31 -7 45 -28 64 -39 34 -108 33 -142 -1z m111 -40 c15 -23 15
-27 0 -50 -29 -44 -86 -28 -86 25 0 53 57 69 86 25z"/>
<path d="M2440 1619 c0 -88 1 -90 23 -87 17 2 21 8 19 30 -5 40 14 42 38 3 15
-24 29 -35 46 -35 24 0 24 0 7 35 -15 32 -15 36 0 53 42 46 3 92 -78 92 l-55
0 0 -91z m95 31 c0 -9 -11 -16 -27 -18 -27 -3 -38 14 -21 32 12 12 48 2 48
-14z"/>
<path d="M2620 1620 l0 -90 65 0 c58 0 65 2 65 20 0 17 -7 20 -40 20 -29 0
-40 4 -40 15 0 10 10 15 30 15 23 0 30 4 30 20 0 16 -7 20 -30 20 -20 0 -30 5
-30 15 0 11 11 15 40 15 33 0 40 3 40 20 0 18 -7 20 -65 20 l-65 0 0 -90z"/>
</g>
</svg>
